<?xml version="1.0" encoding="utf-8"?>
<!-- Generator: Adobe Illustrator 16.0.0, SVG Export Plug-In . SVG Version: 6.00 Build 0)  -->
<!DOCTYPE svg PUBLIC "-//W3C//DTD SVG 1.1//EN" "http://www.w3.org/Graphics/SVG/1.1/DTD/svg11.dtd">
<svg version="1.1" id="Layer_1" xmlns="http://www.w3.org/2000/svg" xmlns:xlink="http://www.w3.org/1999/xlink" x="0px" y="0px"
	 width="75.425px" height="27.986px" viewBox="-0.125 0 75.425 27.986" enable-background="new -0.125 0 75.425 27.986"
	 xml:space="preserve">
<path fill="#000000" stroke="#000000" stroke-width="0.216" stroke-miterlimit="22.9256" d="M6.255,27.823H5.154L1.082,23.45v4.373
	H0.199v-5.334h1.098l4.074,4.375v-4.375h0.884V27.823L6.255,27.823z M14.609,25.151c0,0.875-0.358,1.582-1.076,2.121
	c-0.629,0.473-1.409,0.707-2.342,0.707c-0.943,0-1.729-0.238-2.358-0.715c-0.718-0.541-1.076-1.244-1.076-2.113
	c0-0.855,0.364-1.559,1.09-2.107c0.64-0.48,1.419-0.723,2.343-0.723c0.928,0,1.707,0.242,2.336,0.723
	C14.248,23.593,14.609,24.294,14.609,25.151L14.609,25.151z M13.688,25.151c0-0.623-0.265-1.131-0.795-1.52
	c-0.457-0.334-1.023-0.502-1.701-0.502c-0.742,0-1.347,0.191-1.813,0.572c-0.468,0.381-0.7,0.861-0.7,1.447
	c0,0.604,0.229,1.09,0.686,1.461s1.065,0.557,1.828,0.557c0.756,0,1.36-0.186,1.815-0.559
	C13.461,26.235,13.688,25.749,13.688,25.151L13.688,25.151z M21.851,22.489l-2.874,5.334H17.96l-2.873-5.334h0.987l2.394,4.445
	l2.396-4.445H21.851L21.851,22.489z M29.182,25.151c0,0.875-0.359,1.582-1.076,2.121c-0.628,0.473-1.408,0.707-2.342,0.707
	c-0.943,0-1.729-0.238-2.357-0.715c-0.718-0.541-1.076-1.244-1.076-2.113c0-0.855,0.363-1.559,1.091-2.107
	c0.638-0.48,1.419-0.723,2.343-0.723c0.928,0,1.707,0.242,2.335,0.723C28.82,23.593,29.182,24.294,29.182,25.151L29.182,25.151z
	 M28.261,25.151c0-0.623-0.265-1.131-0.795-1.52c-0.457-0.334-1.024-0.502-1.702-0.502c-0.742,0-1.346,0.191-1.813,0.572
	s-0.7,0.861-0.7,1.447c0,0.604,0.229,1.09,0.685,1.461s1.066,0.557,1.827,0.557c0.756,0,1.36-0.186,1.815-0.559
	S28.261,25.749,28.261,25.151L28.261,25.151z"/>
<path fill="#000000" d="M36.74,27.823H35.64l-4.071-4.373v4.373h-0.884v-5.334h1.097l4.074,4.375v-4.375h0.885V27.823L36.74,27.823z
	 M44.498,27.823h-0.969l-0.613-1.193h-3.594l-0.614,1.193h-0.966l2.819-5.334h1.112L44.498,27.823L44.498,27.823z M42.486,25.835
	l-1.355-2.586l-1.376,2.586H42.486L42.486,25.835z M51.32,26.098c0,0.559-0.271,1.008-0.811,1.352
	c-0.551,0.355-1.284,0.537-2.203,0.537c-0.918,0-1.656-0.182-2.218-0.537c-0.54-0.352-0.812-0.799-0.812-1.352v-3.607h0.885v3.395
	c0,0.418,0.184,0.736,0.55,0.957c0.366,0.225,0.896,0.332,1.595,0.332s1.229-0.107,1.588-0.332c0.36-0.221,0.541-0.539,0.541-0.957
	v-3.395h0.885V26.098L51.32,26.098z M58.193,23.284h-2.549v4.539H54.76v-4.539h-2.549v-0.795h5.98L58.193,23.284L58.193,23.284z
	 M60.006,27.823h-0.885v-5.334h0.885V27.823L60.006,27.823z M68.014,23.706l-0.803,0.285c-0.541-0.572-1.297-0.861-2.271-0.861
	c-0.734,0-1.337,0.189-1.801,0.568c-0.465,0.377-0.695,0.857-0.695,1.441c0,0.605,0.229,1.094,0.688,1.465
	c0.459,0.369,1.079,0.555,1.859,0.555c0.941,0,1.686-0.291,2.226-0.875l0.759,0.42c-0.383,0.445-0.814,0.77-1.3,0.969
	c-0.484,0.197-1.063,0.299-1.735,0.299c-0.941,0-1.727-0.234-2.35-0.707c-0.713-0.541-1.068-1.248-1.068-2.123
	c0-0.857,0.36-1.561,1.083-2.105c0.628-0.479,1.407-0.715,2.335-0.715C66.277,22.319,67.302,22.782,68.014,23.706L68.014,23.706z
	 M75.3,27.823h-0.966l-0.616-1.193h-3.592l-0.615,1.193h-0.967l2.821-5.334h1.111L75.3,27.823L75.3,27.823z M73.287,25.835
	l-1.356-2.586l-1.375,2.586H73.287L73.287,25.835z"/>
<polygon fill="#0097F6" points="45.115,17.798 41.967,17.798 21.224,1.547 21.224,17.798 19.015,17.798 19.015,-0.001 22.21,-0.001 
	42.906,16.249 42.906,-0.001 45.115,-0.001 "/>
<polygon fill="#0097F6" points="30.107,17.798 33.258,17.798 54,1.547 54,17.798 56.209,17.798 56.209,-0.001 53.014,-0.001 
	32.316,16.249 32.316,-0.001 30.107,-0.001 "/>
</svg>
