<?xml version="1.0" encoding="utf-8"?>
<!-- Generator: Adobe Illustrator 16.0.0, SVG Export Plug-In . SVG Version: 6.00 Build 0)  -->
<!DOCTYPE svg PUBLIC "-//W3C//DTD SVG 1.1//EN" "http://www.w3.org/Graphics/SVG/1.1/DTD/svg11.dtd">
<svg version="1.1" id="Layer_1" xmlns="http://www.w3.org/2000/svg" xmlns:xlink="http://www.w3.org/1999/xlink" x="0px" y="0px"
	 width="1920px" height="532.473px" viewBox="0 0 1920 532.473" enable-background="new 0 0 1920 532.473" xml:space="preserve">
<rect x="0.92" y="-273.764" display="none" fill="#292E41" width="1920" height="1080"/>
<polygon fill="#363C52" points="1920.795,338.893 0,532.473 0,0 1920.795,186.736 "/>
<g display="none">
	<path display="inline" fill="#438FCD" d="M1270.486,54.779c-0.622-1.431-1.396-2.641-2.457-2.536
		c-3.716,0.366-3.703-2.042-3.963-4.59c-0.179-1.749-0.79-3.454-1.231-5.173c-0.3-1.165-0.911-2.347,0.739-3.691
		c2.667,2.924,6.006,5.113,9.322,7.347c0.855,0.578-0.176,1.662-0.078,2.51c0.148,1.271-0.48,2.661,0.819,4.178
		c15.776-8.629,32.09-16.266,49.083-22.211c0.082-1.436-0.387-2.664-1.494-2.896c-3.063-0.642-2.665-2.5-2.186-4.741
		c0.416-1.938,0.457-3.959,0.629-5.947c0.104-1.202-0.055-2.498,1.352-3.113c1.703,0.172,1.447,1.711,2.008,2.703
		c0.76,1.347,1.578,2.713,2.629,3.831c1.951,2.077,3.163,4.111,1.131,6.823c-0.366,0.489-0.396,1.231-0.566,1.811
		c0.832,0.666,1.59,0.319,2.322,0.129c13.59-3.528,27.458-5.279,41.424-6.311c2.819-0.208,3.863-1.237,4.273-4.148
		c1.037-7.343,2.592-14.614,3.928-21.915c0.256-1.404,0.792-1.553,2.369-1.67c1.91-0.142,2.029,0.54,2.301,1.794
		c1.66,7.693,3.207,15.411,4.142,23.229c0.253,2.116,1.534,2.417,3.185,2.569c9.619,0.885,19.25,1.706,28.756,3.503
		c5.195,0.983,10.35,2.201,15.49,3.307c0.17-0.475,0.357-0.742,0.291-0.847c-2.398-3.768-1.207-6.841,1.719-9.694
		c1.031-1.004,1.697-2.311,1.986-3.784c0.131-0.668,0.58-1.269,1.34-1.292c0.989-0.029,1.371,0.774,1.428,1.54
		c0.246,3.32,0.382,6.642,1.21,9.9c0.331,1.306-0.828,1.693-1.796,1.959c-1.482,0.41-2.203,1.363-2.394,3.157
		c16.923,6.12,33.335,13.523,48.925,22.216c1.354-0.715,1.246-1.744,1.025-2.521c-0.977-3.439,0.818-5.279,3.615-6.553
		c2.339-1.063,3.611-3.45,6.125-5.042c1.488,3.75-1.529,6.702-1.016,9.808c0.861,5.2-5.718,2.493-6.221,6.552
		c2.008,1.184,4.182,2.463,6.352,3.748c12.049,7.137,23.957,14.51,34.696,23.546c9.292,7.821,17.528,16.666,24.397,26.745
		c4.129,6.056,8.479,11.96,12.609,18.016c1.524,2.236,3.056,2.213,3.654-0.193c0.98-3.94,3.557-4.704,6.984-4.765
		c1.531-0.027,3.076-0.319,4.459-1.181c0.725-0.451,1.653-0.969,2.34,0.077c0.504,0.768,0.135,1.546-0.406,2.127
		c-2.119,2.285-4.169,4.612-5.717,7.345c-0.616,1.093-1.594,1.146-2.572,0.536c-1.978-1.233-3.563-0.429-5.365,0.989
		c4.429,9.183,8.078,18.698,11.512,28.285c2.395,6.68,4.287,13.541,6.38,20.328c0.991,3.215,2.421,3.766,4.317,1.087
		c2.021-2.855,4.217-3.224,7.229-2.322c2.327,0.697,4.785,0.327,6.978,0.149c0.716,1.14,0.508,1.917-0.19,2.381
		c-2.865,1.9-5.861,3.598-8.42,5.946c-0.814,0.75-1.707,0.254-2.344-0.447c-1.67-1.844-3.543-1.328-5.896-0.493
		c4.355,16.044,6.598,32.342,5.773,49.118c9.178,1.662,18.109,3.219,27.008,4.938c1.822,0.353,4.92-0.117,4.973,2.231
		c0.055,2.457-3.064,2.015-4.855,2.31c-7.846,1.289-15.533,3.4-23.461,4.264c-2.428,0.265-4.268,1.32-4.457,4.57
		c-0.811,13.765-2.813,27.375-6.254,40.752c-0.127,0.496-0.016,1.053-0.016,2.311c4.995-4.359,8.156-0.713,11.453,2.002
		c1.246,1.025,3.468,0.451,4.018,2.521c-0.543,1.523-1.848,1.398-3.05,1.477c-1.552,0.102-3.132,0.047-4.649,0.328
		c-2.656,0.496-5.461,1.887-6.443-2.354c-0.176-0.75-1.342-1.057-2.471-1.104c-6.152,16.986-13.566,33.398-22.235,48.926
		c0.646,1.141,1.39,1.248,1.99,1.057c3.859-1.236,5.917,0.863,7.339,3.969c1.021,2.229,3.532,3.248,4.488,5.404
		c-0.984,1.357-2.055,1.066-3.154,0.74c-1.385-0.412-2.762-0.873-4.174-1.152c-2.836-0.561-6.545,0.191-6.185-4.701
		c0.05-0.678-0.948-1.434-1.55-2.275c-2.436,2.137-3.35,4.533-4.635,6.664c-9.311,15.41-18.705,30.732-31.588,43.584
		c-10.855,10.828-23.67,19.055-36.051,27.873c-0.915,0.65-2.543,0.842-2.301,2.465c0.213,1.438,1.613,1.908,2.727,2.145
		c2.605,0.557,3.479,1.99,3.531,4.596c0.045,2.283,0.293,4.664,1.612,6.729c0.36,0.563,0.522,1.301-0.108,1.818
		c-0.721,0.596-1.527,0.357-2.127-0.18c-2.4-2.15-4.791-4.295-7.611-5.914c-1.121-0.641-0.953-1.676-0.389-2.613
		c1.201-2.012,0.318-3.563-1.072-5.229c-9.328,4.514-18.977,8.174-28.68,11.664c-6.574,2.363-13.338,4.197-20.021,6.248
		c-3.045,0.938-3.661,2.465-1.109,4.111c3.348,2.16,3.297,4.748,2.364,7.838c-0.68,2.248,0.247,4.58-0.282,6.715
		c-1.235,0.607-1.969,0.074-2.441-0.719c-1.652-2.77-3.328-5.512-5.541-7.889c-0.746-0.801-0.539-1.705,0.197-2.365
		c1.937-1.74,1.557-3.662,0.645-5.916c-7.808,1.518-15.371,3.725-23.221,4.553c-6.086,0.643-12.146,1.371-18.268,1.119
		c-2.436-0.1-3.512,0.646-3.839,3.23c-1.138,9.02-2.759,17.965-4.685,26.852c-0.302,1.389-0.789,1.561-2.377,1.672
		c-1.904,0.137-2.025-0.537-2.303-1.793c-1.988-8.99-3.52-18.057-4.791-27.174c-0.213-1.543-0.492-2.781-2.523-2.74
		c-14.428,0.305-28.508-2.113-42.568-5.84c-0.977,2.193-1.539,4.076,0.375,5.875c0.691,0.652,1.199,1.535,0.453,2.346
		c-2.354,2.555-4.06,5.545-5.945,8.42c-0.386,0.59-1.045,0.773-2.259,0.477c0.438-3.84-0.4-7.664-0.898-11.531
		c-0.173-1.354,1.767-1.457,2.552-2.379c0.856-1.008,2.146-1.775,1.914-3.305c-0.252-1.648-1.863-1.357-2.933-1.662
		c-16.159-4.572-31.912-10.248-47.164-17.291c-0.38-0.174-0.804-0.26-1.235-0.395c-1.307,1.654-2.106,3.238-0.883,5.221
		c0.717,1.158,0.391,2.084-0.811,2.762c-2.537,1.428-4.714,3.318-6.806,5.322c-0.653,0.625-1.466,1.188-2.384,0.619
		c-1.064-0.66-0.537-1.609-0.088-2.332c0.734-1.184,1.029-2.482,1.11-3.801c0.224-3.596,0.606-6.824,5.134-7.797
		c1.939-0.418,2.132-1.973,0.182-3.318c-6.032-4.162-11.998-8.422-18.007-12.621c-14.923-10.422-27.477-23.125-37.358-38.461
		c-5.053-7.84-10.543-15.4-14.877-23.693c-0.654-1.254-1.504-2.404-2.246-3.578c-1.613,0.656-2.787,1.504-2.668,2.979
		c0.217,2.65-1.198,3.086-3.383,3.301c-2.189,0.219-4.336,0.893-6.49,1.412c-1.182,0.287-2.369,0.83-3.465-0.957
		c2.807-2.488,5.117-5.512,6.975-8.881c0.459-0.832,1.3-0.512,2.092-0.357c1.512,0.295,3.043,0.303,5.158-0.27
		c-8.781-16.115-16.458-32.404-22.416-49.436c-1.502-0.189-2.717,0.377-2.991,1.637c-0.575,2.656-2.111,2.672-4.198,2.051
		c-2.258-0.672-4.611-0.625-6.941-0.715c-1.002-0.041-2.209-0.064-2.471-1.242c-0.293-1.314,0.878-1.59,1.86-1.838
		c2.028-0.508,3.536-1.912,4.995-3.217c1.895-1.693,3.588-2.746,5.959-0.914c0.568,0.436,1.443,0.477,2.55,0.813
		c0.011-3.316-1.099-6.191-1.747-9.131c-2.451-11.082-3.912-22.313-4.55-33.624c-0.192-3.414-1.837-4.158-4.616-4.608
		c-7.987-1.295-15.949-2.747-23.918-4.149c-0.764-0.134-1.508-0.383-2.27-0.531c-1.028-0.202-2.145-0.51-2.138-1.704
		c0.007-1.195,1.133-1.491,2.161-1.684c5.883-1.103,11.764-2.225,17.65-3.315c3.375-0.626,6.757-1.223,10.143-1.797
		c1.332-0.225,2.205-0.6,2.137-2.293c-0.633-15.67,1.57-31.01,5.49-46.144c0.078-0.305,0.045-0.637,0.075-1.124
		c-2.046-0.882-3.952-1.35-5.712,0.596c-0.544,0.601-1.388,1.098-2.065,0.476c-2.719-2.492-6.001-4.172-8.905-6.386
		c-0.441-0.336-0.508-0.962,0.015-1.977c3.604,0.428,7.354-0.221,11.116-0.885c1.504-0.265,1.557,1.657,2.444,2.431
		c1.077,0.936,1.895,2.402,3.563,2.061c1.551-0.316,1.279-1.937,1.586-3.022c4.655-16.477,10.499-32.515,17.751-48.142
		c-1.688-1.514-3.343-2.243-5.427-0.984c-1.025,0.619-1.935,0.389-2.537-0.675c-1.493-2.631-3.435-4.904-5.519-7.075
		c-0.635-0.664-1.129-1.542-0.481-2.396c0.716-0.942,1.648-0.389,2.383,0.067c1.285,0.795,2.717,1.018,4.143,1.112
		c3.391,0.221,6.395,0.566,7.257,4.885c0.42,2.103,1.989,2.43,3.474,0.272c4.212-6.134,8.526-12.197,12.809-18.282
		c10.277-14.6,22.734-26.945,37.751-36.683c8.105-5.257,15.962-10.906,24.54-15.409
		C1268.338,56.272,1269.309,55.537,1270.486,54.779z M1389.027,32.033c2.124,12.616,4.164,24.646,6.162,36.684
		c0.271,1.625,1.19,2.118,2.722,2.284c13.196,1.433,25.936,4.692,38.463,9.101c25.45,8.96,48.562,21.003,67.911,40.784
		c16.266,16.627,27.191,35.986,35.395,56.967c5.817,14.885,10,30.572,11.861,46.646c0.322,2.782,1.068,4.288,4.303,4.546
		c4.508,0.362,8.947,1.513,13.424,2.272c6.197,1.051,12.399,2.052,18.898,3.124c0.732-15.73-1.807-30.575-6.141-45.425
		c-1.561,0.432-2.834,0.759-4.09,1.138c-6.27,1.897-12.527,3.837-18.811,5.687c-1.092,0.322-2.694,1.023-3.215-0.509
		c-0.559-1.642,1.174-1.832,2.275-2.189c6.758-2.193,13.502-4.437,20.305-6.478c2.275-0.682,2.559-1.6,1.918-3.818
		c-3.354-11.647-7.586-22.973-12.17-34.173c-1.574-3.85-3.449-7.579-5.352-11.719c-3.285,2.282-6.065,4.276-8.911,6.175
		c-3.692,2.465-7.413,4.891-11.173,7.25c-0.873,0.547-2.113,1.374-2.895-0.012c-0.652-1.152,0.48-1.758,1.293-2.33
		c1.271-0.894,2.549-1.777,3.826-2.661c5.27-3.645,10.542-7.288,15.641-10.813c-7.411-16.063-19.207-28.184-31.222-40.378
		c-1.591,1.512-2.931,2.824-4.315,4.088c-0.895,0.818-1.992,1.218-2.992,0.333c-1.202-1.062-0.721-2.332,0.232-3.199
		c1.394-1.262,2.982-2.306,4.381-3.362c-4.48-5.708-31.41-23.484-42.537-28.41c-1.805,3.236-3.596,6.534-5.471,9.783
		c-2.109,3.653-4.252,7.287-6.472,10.873c-0.594,0.958-1.263,2.558-2.714,1.806c-1.618-0.84-0.4-2.122,0.144-3.118
		c1.276-2.337,2.656-4.617,3.944-6.949c2.605-4.718,5.176-9.453,7.867-14.379c-14.934-8.651-30.229-15.467-46.397-21.414
		c-0.831,4.533-1.513,8.567-2.321,12.577c-0.881,4.349-1.844,8.683-2.861,13.001c-0.215,0.91-0.613,2.131-1.99,1.65
		c-1.055-0.367-0.924-1.354-0.741-2.274c0.298-1.523,0.547-3.056,0.831-4.582c1.314-7.062,2.635-14.123,4.01-21.486
		C1417.9,35.457,1403.861,33.109,1389.027,32.033z M1172.82,234.133c1.231-0.057,2.019-0.013,2.778-0.139
		c10.38-1.723,20.751-3.5,31.14-5.18c1.835-0.296,2.291-1.374,2.477-2.944c1.552-13.164,5.352-25.809,8.958-38.496
		c1.121-3.945,1.967-7.993,3.706-11.735c9.324-20.061,18.316-40.356,35.842-55.051c1.26-1.057,0.587-3.062,2.131-3.501
		c2.555-0.727,4.027-2.708,5.686-4.45c5.49-5.768,11.815-10.458,18.717-14.329c24.505-13.749,50.27-23.953,78.41-27.224
		c2.211-0.257,3.025-1.183,3.335-3.245c0.79-5.269,1.75-10.51,2.628-15.765c1.09-6.521,2.162-13.044,3.319-20.027
		c-14.81,1.055-28.917,3.405-42.974,7.089c1.629,8.841,3.174,17.23,4.725,25.619c0.199,1.082,0.704,2.429-0.843,2.742
		c-1.503,0.304-1.722-1.209-1.952-2.204c-0.975-4.215-1.836-8.457-2.729-12.69c-0.854-4.055-1.044-8.274-2.692-12.287
		c-15.979,6.058-31.291,12.729-46.061,21.396c3.466,6.168,6.775,12.047,10.072,17.933c0.867,1.548,1.722,3.104,2.521,4.688
		c0.324,0.641,0.231,1.337-0.418,1.766c-0.679,0.448-1.295,0.143-1.754-0.401c-0.568-0.676-1.145-1.368-1.585-2.128
		c-3.169-5.474-6.295-10.974-9.462-16.45c-0.699-1.209-1.15-2.634-2.729-3.48c-14.32,8.252-28.573,16.691-42.267,27.836
		c2.045,1.66,3.584,2.772,4.949,4.067c0.844,0.803,1.229,1.962,0.229,2.958c-0.969,0.965-2.07,0.667-2.983-0.138
		c-1.474-1.298-2.877-2.677-4.433-4.137c-12.146,12.226-23.907,24.378-31.228,40.347c6.399,4.426,12.87,8.896,19.333,13.38
		c0.883,0.613,2.227,1.25,1.342,2.549c-0.843,1.237-2.074,0.352-2.955-0.202c-3.665-2.302-7.283-4.68-10.896-7.062
		c-2.936-1.934-5.602-4.285-9.186-6.028c-7.364,15.754-13.59,31.661-18.006,48.489c1.281,0.443,2.309,0.817,3.348,1.152
		c6.55,2.113,13.103,4.215,19.652,6.327c1.045,0.337,2.548,0.613,2.195,1.993c-0.425,1.664-2.02,1.013-3.11,0.712
		c-4.28-1.179-8.528-2.478-12.79-3.721c-3.369-0.982-6.592-2.506-10.336-2.973C1174.668,203.89,1172.111,218.638,1172.82,234.133z
		 M1580.442,294.058c2.502-7.355,3.444-14.746,4.823-22.015c1.055-5.551,1.496-11.222,2.146-16.846
		c0.146-1.284,0.254-3.361-1.666-2.731c-4.041,1.322-8.238,1.265-12.32,2.071c-5.683,1.12-11.391,2.183-17.133,2.89
		c-2.311,0.285-3.304,0.974-3.639,3.28c-0.748,5.158-1.162,10.361-2.383,15.465c-4.095,17.132-10.032,33.528-17.902,49.333
		c-7.109,14.285-15.465,27.508-27.801,37.791c-2.172,1.811-1.941,5.457-3.799,5.912c-3.008,0.738-4.8,2.539-6.777,4.381
		c-4.232,3.953-8.707,7.537-13.691,10.547c-23.559,14.227-49.016,23.275-76.028,28.137c-8.333,1.5-8.37,1.459-9.801,9.82
		c-1.586,9.266-3.114,18.543-4.662,27.783c6.778,1.801,34.952-2.99,40.783-6.221c-0.313-1.137-0.608-2.313-0.961-3.475
		c-1.872-6.16-3.798-12.305-5.606-18.482c-0.371-1.268-1.414-3.178,0.471-3.758c1.704-0.523,1.819,1.537,2.205,2.721
		c0.965,2.955,1.78,5.955,2.749,8.91c1.475,4.488,3.028,8.951,4.594,13.555c16.956-4.621,32.915-10.658,48.717-18.229
		c-2.319-3.322-4.323-6.109-6.237-8.957c-2.352-3.5-4.67-7.025-6.912-10.596c-0.603-0.963-1.73-2.285-0.438-3.246
		c1.457-1.084,2.074,0.58,2.73,1.506c1.535,2.178,2.975,4.42,4.501,6.602c2.972,4.244,5.973,8.465,8.917,12.633
		c11.093-5.25,35.813-24.883,40.216-32.115c-1.233-1.045-2.643-2.137-3.925-3.361c-0.941-0.9-1.502-2.104-0.447-3.234
		c1.092-1.174,2.217-0.49,3.23,0.314c1.455,1.152,2.412,2.879,4.132,3.709c4.952-4.041,23.57-32.371,27.503-41.936
		c-3.237-1.799-6.545-3.574-9.793-5.455c-3.839-2.227-7.647-4.51-11.415-6.855c-0.774-0.482-1.91-1.172-1.218-2.371
		c0.692-1.205,1.709-0.574,2.607-0.102c0.588,0.309,1.189,0.598,1.77,0.924c6.563,3.701,13.125,7.404,20.011,11.293
		c8.663-14.814,15.407-30.176,21.282-45.818c-0.988-1.209-2.211-1.111-3.242-1.326c-6.953-1.439-13.932-2.754-20.886-4.189
		c-1.21-0.248-3.155-0.303-2.899-2.039c0.298-2.02,2.103-1.014,3.279-0.801C1563.707,290.944,1571.876,292.474,1580.442,294.058z
		 M1278.516,425.081c15.744,7.355,31.646,13.596,48.363,17.971c0.361-0.846,0.666-1.432,0.865-2.051
		c2.217-6.867,4.408-13.738,6.629-20.604c0.361-1.119,0.557-2.9,2.088-2.494c1.805,0.482,0.947,2.23,0.622,3.414
		c-1.146,4.172-2.422,8.311-3.63,12.469c-0.98,3.369-2.512,6.59-2.975,10.365c13.363,3.729,26.687,6.48,40.792,6.076
		c-1.917-11.338-3.846-22.15-5.509-33c-0.404-2.646-1.379-3.824-4.041-4.117c-12.083-1.324-23.516-5.461-35.256-8.279
		c-13.231-3.17-24.909-9.949-36.977-15.799c-8.84-4.287-16.963-9.691-23.875-16.773c-1.385-1.418-2.728-2.906-5.048-2.756
		c-0.931,0.061-1.927-0.502-1.47-1.645c0.775-1.932-0.734-2.58-1.728-3.494c-8.027-7.398-15.599-15.166-21.093-24.742
		c-10.94-19.066-19.733-38.977-24.793-60.475c-1.433-6.084-2.272-12.219-3.136-18.369c-0.282-2.01-0.842-3.087-3.171-3.366
		c-4.611-0.55-9.162-1.595-13.748-2.372c-5.848-0.994-11.708-1.922-17.572-2.88c-0.807,6.743,4.348,36.872,7.098,41.819
		c8.338-1.539,16.728-3.082,25.115-4.635c1.086-0.199,2.433-0.691,2.723,0.867c0.279,1.498-1.23,1.707-2.229,1.939
		c-4.215,0.971-8.457,1.828-12.69,2.725c-4.052,0.857-8.276,1.023-12.158,2.67c3.217,9.93,16.458,39.93,21.646,45.885
		c5.822-3.273,11.703-6.584,17.589-9.885c1.451-0.814,2.907-1.621,4.38-2.396c0.741-0.393,1.538-0.492,2.063,0.32
		c0.558,0.859-0.055,1.471-0.657,1.977c-0.593,0.498-1.221,0.971-1.888,1.355c-5.479,3.162-10.979,6.287-16.451,9.459
		c-1.207,0.697-2.643,1.137-3.445,2.711c8.217,14.357,16.688,28.584,27.686,42.111c1.714-1.975,2.881-3.465,4.206-4.795
		c0.825-0.832,1.974-1.217,2.96-0.207c0.953,0.973,0.648,2.074-0.156,2.986c-1.301,1.471-2.676,2.877-4.127,4.422
		c12.23,12.15,24.385,23.908,40.338,31.221c4.371-6.313,8.775-12.695,13.211-19.057c0.65-0.934,1.256-2.598,2.72-1.59
		c1.351,0.928,0.235,2.271-0.368,3.232c-2.239,3.57-4.574,7.084-6.896,10.604C1282.588,418.833,1280.223,421.491,1278.516,425.081z
		 M1290.15,323.249c-1.555-1.693-3.026-3.061-4.227-4.633c-11.188-14.658-19.387-30.74-22.936-48.97
		c-0.352-1.804-0.969-2.535-2.887-2.849c-12.564-2.06-25.084-4.391-37.652-6.417c-3.518-0.564-7.018-1.818-10.953-1.374
		c0.777,5.239,1.242,10.223,2.288,15.081c4.231,19.659,11.533,38.198,20.993,55.899c3.191,5.971,6.629,11.814,10.724,17.229
		c4.612,6.098,10.271,11.184,15.913,16.797C1271.123,350.239,1280.574,336.831,1290.15,323.249z M1499.798,364.294
		c29.929-29.184,43.272-65.445,50.092-105.287c-3.495-0.282-6.043,0.546-8.603,0.971c-13.416,2.227-26.805,4.622-40.223,6.841
		c-1.998,0.332-2.762,1.157-3.107,3.112c-2.254,12.733-7.432,24.382-13.857,35.464c-3.703,6.387-7.887,12.518-13.304,17.777
		C1480.42,336.817,1489.932,350.304,1499.798,364.294z M1473.371,159.604c1.451,1.829,2.939,3.353,4.025,5.124
		c10.242,16.705,18.848,34.175,24.346,53.052c0.486,1.67,1.227,2.217,2.898,2.492c11.251,1.852,22.465,3.933,33.722,5.744
		c3.414,0.549,6.811,1.627,10.606,1.424c-0.199-1.429-0.372-2.509-0.5-3.594c-1.474-12.506-5.313-24.454-8.746-36.481
		c-5.041-17.674-13.919-33.563-23.908-48.81c-4.164-6.357-10.051-11.34-15.714-16.866
		C1491.02,134.569,1482.212,147.063,1473.371,159.604z M1260.893,121.67c-5.684,5.605-11.548,10.704-15.895,17.084
		c-14.854,21.808-24.515,45.862-29.973,71.614c-1.182,5.578-2.494,11.174-2.834,16.824c1.142,0.553,2.012,0.305,2.869,0.159
		c12.764-2.176,25.504-4.5,38.303-6.458c3.834-0.587,5.469-2.008,6.742-5.919c6.411-19.684,15.076-38.341,27.34-55.633
		C1278.817,147.1,1270.01,134.604,1260.893,121.67z M1396.481,410.466c1.655-0.209,2.726-0.354,3.799-0.475
		c11.427-1.287,22.235-5.172,33.296-7.984c15.656-3.98,29.533-12.033,43.6-19.613c6.998-3.77,12.816-8.986,18.354-14.641
		c-0.344-0.455-0.492-0.77-0.738-0.955c-12.169-9.125-24.361-18.219-36.502-27.381c-1.373-1.035-2.283-0.613-3.523,0.164
		c-12.922,8.102-26.404,15.266-40.863,20.02c-7.418,2.438-10.693,6.01-11.495,13.826
		C1401.154,385.646,1398.59,397.728,1396.481,410.466z M1364.367,410.185c-0.192-1.482-0.309-2.689-0.506-3.881
		c-2.15-12.916-4.463-25.807-6.371-38.758c-0.505-3.42-2.051-4.863-5.093-5.885c-16.17-5.428-31.365-12.953-45.845-21.92
		c-1.861-1.154-2.983-0.994-4.631,0.252c-11.331,8.58-22.743,17.047-34.107,25.58c-0.832,0.625-2.031,0.994-2.16,2.289
		C1286.306,390.679,1337.73,407.876,1364.367,410.185z M1496.467,118.438c-18.355-22.557-78.611-44.444-99.971-43.711
		c-0.043,0.214-0.148,0.438-0.116,0.639c2.425,14.671,4.894,29.336,7.259,44.017c0.291,1.811,1.348,1.893,2.745,2.132
		c8.017,1.374,15.66,3.865,23.159,7.079c10.598,4.542,20.148,10.689,29.383,17.875
		C1471.445,137.119,1483.867,127.844,1496.467,118.438z M1364.765,74.221c-5.728,0.779-10.896,1.217-16.001,2.385
		c-8.564,1.957-16.943,4.46-25.225,7.369c-16.943,5.95-33.015,13.643-47.756,23.948c-4.156,2.904-7.692,6.564-11.367,10.428
		c12.76,9.525,25.188,18.8,37.568,28.043c3.52-2.515,6.704-4.919,10.014-7.136c13.053-8.742,27.124-15.103,42.707-17.713
		c1.984-0.333,2.479-1.13,2.756-2.899c1.174-7.455,2.523-14.882,3.755-22.329C1362.404,89.12,1363.531,81.913,1364.765,74.221z
		 M1410.352,241.365c65.633,0,131.121,0,196.611,0c-12.832-2.567-25.685-4.833-38.547-7.033
		c-40.398-6.909-80.801-13.792-121.199-20.688c-3.719-0.635-7.437-1.435-11.146,0.02c-10.166,3.981-18.619,11.064-28.674,15.522
		C1408.842,233.268,1409.914,237.198,1410.352,241.365z M1157.704,245.271c0.036,0.281,0.071,0.566,0.107,0.847
		c17.355,2.929,34.716,5.822,52.065,8.793c34.41,5.89,68.814,11.825,103.222,17.735c3.927,0.674,7.854,1.666,11.808,0.127
		c10.18-3.966,18.621-11.082,28.705-15.526c-1.445-4.082-2.529-8.01-2.971-12.313
		C1286.242,244.451,1221.977,246.012,1157.704,245.271z M1382.901,466.183c2.412-6.025,2.776-12.264,3.808-18.355
		c7.826-46.186,16.191-92.281,23.576-138.543c0.51-3.197,0.174-6.109-1.36-8.617c-5.29-8.645-8.917-18.133-13.946-26.903
		c-0.854-1.484-1.604-1.891-3.119-1.299c-2.17,0.848-4.32,1.849-6.577,2.338c-1.92,0.418-2.429,1.177-2.423,3.106
		c0.066,27.992,0.042,55.984,0.042,83.977C1382.899,396.653,1382.901,431.417,1382.901,466.183z M1377.594,210.862
		c0-62.799,0-125.484,0-188.167c-0.827,1.048-1.091,2.111-1.272,3.188c-8.499,50.332-16.959,100.671-25.552,150.988
		c-0.561,3.281-0.291,6.304,1.328,8.941c5.303,8.634,8.925,18.121,13.947,26.891c0.869,1.519,1.655,1.806,3.141,1.239
		C1372.071,212.84,1374.984,211.813,1377.594,210.862z M1379.729,268.433c13.238,1.138,26.021-11.667,26.248-23.129
		c0.322-16.305-9.031-28.138-24.707-29.021c-12.468-0.702-25.619,12.037-26.279,24.704
		C1354.176,256.616,1364.109,268.136,1379.729,268.433z M1272.404,217.472c16.893-2.88,33.218-5.666,50.07-8.54
		c-9.09-12.852-17.83-25.214-26.965-38.129C1284.318,184.916,1277.414,200.432,1272.404,217.472z M1465.201,171.201
		c-8.904,12.598-17.625,24.938-26.675,37.746c16.993,2.89,33.36,5.673,50.157,8.53
		C1483.318,200.571,1477.173,184.762,1465.201,171.201z M1274.467,269.316c4.848,16.198,12.282,30.101,24.262,41.776
		c7.965-11.275,15.689-22.211,23.744-33.613C1306.271,274.725,1290.611,272.063,1274.467,269.316z M1462.283,311.114
		c11.934-11.746,19.477-25.561,24.182-41.739c-16.162,2.739-31.788,5.387-47.697,8.085c0.484,0.869,0.658,1.272,0.906,1.626
		C1447.09,289.599,1454.512,300.108,1462.283,311.114z M1446.831,155.504c-8.579-9.777-34.356-23.424-40.757-21.461
		c2.666,15.062,5.338,30.157,8.093,45.724C1425.347,171.463,1436.078,163.49,1446.831,155.504z M1346.846,179.77
		c2.76-15.653,5.436-30.824,8.273-46.913c-16.002,4.442-29.447,11.464-41.121,22.522
		C1324.951,163.511,1335.684,171.481,1346.846,179.77z M1359.8,267.309c-26.681,27.542-53.403,55.128-80.595,83.198
		c2.135-0.391,3-1.463,4.02-2.223c19.84-14.799,39.617-29.684,59.512-44.406c5.25-3.885,9.109-8.738,11.781-14.582
		c2.309-5.051,4.729-10.033,7.432-14.887C1364.261,270.256,1364.191,270.217,1359.8,267.309z M1481.313,136.423
		c-0.14-0.173-0.278-0.345-0.418-0.517c-0.885,0.621-1.789,1.218-2.656,1.865c-20.006,14.952-39.967,29.965-60.04,44.828
		c-5.251,3.888-9.09,8.763-11.753,14.61c-2.303,5.054-4.74,10.028-7.436,14.885c-2.32,4.182-2.248,4.222,2.227,6.983
		C1427.902,191.553,1454.608,163.989,1481.313,136.423z M1275.01,136.34c-0.175,0.129-0.349,0.256-0.521,0.384
		c17.307,24.216,34.612,48.434,51.921,72.648c0.793,1.11,1.831,1.944,3.065,2.501c8.889,4.006,17.946,7.679,25.696,13.65
		c1.405-1.012,2.155-2.046,2.722-3.587C1330.297,193.437,1302.652,164.889,1275.01,136.34z M1486.026,350.116
		c0.138-0.174,0.273-0.346,0.411-0.518c-17.238-24.129-34.477-48.26-51.719-72.387c-0.719-1.006-1.584-1.874-2.72-2.401
		c-9.033-4.19-18.331-7.859-26.28-13.963c-1.268,1.214-2.203,2.131-2.539,3.715C1430.762,293.046,1458.395,321.579,1486.026,350.116
		z M1354.361,349.142c-2.553-14.408-4.998-28.203-7.529-42.486c-10.626,7.902-20.863,15.516-31.414,23.361
		C1327.346,338.8,1339.934,344.825,1354.361,349.142z M1414.16,306.657c-2.529,14.32-4.971,28.154-7.504,42.488
		c14.466-4.377,27.15-10.373,38.922-19.16C1434.977,322.114,1424.769,314.536,1414.16,306.657z M1531.582,92.103
		c13.096,11.803,22.156,26.383,32.214,40.108c1.31-0.133,2.189-0.735,2.901-1.542c-7.508-16.376-19.607-29.116-32.066-41.807
		C1533.604,89.953,1532.778,90.83,1531.582,92.103z M1197.245,132.173c10.032-13.759,19.18-28.338,31.952-39.896
		c-0.833-1.52-1.686-2.467-3.068-3.25c-12.166,12.689-24.451,25.239-31.85,41.788
		C1195.129,131.303,1195.847,132.191,1197.245,132.173z M1487.489,425.874c0.256,1.309,0.666,2.387,1.554,2.807
		c16.564-7.455,29.12-19.656,41.723-31.902c-1.063-1.178-1.77-2.326-3.232-2.736c-6.344,5.703-12.162,11.986-19.236,16.873
		C1501.271,415.767,1494.421,420.874,1487.489,425.874z M1230.148,396.665c12.734,12.436,25.434,24.641,41.873,32.08
		c0.718-0.871,1.514-1.652,1.393-2.994c-13.82-10.008-28.329-19.213-40.053-32.086
		C1232.131,394.817,1231.252,395.638,1230.148,396.665z M1486.346,60.92c14.775,8.506,29.095,17.296,42.141,28.021
		c1.309-0.811,2.436-1.634,3.136-3.442c-13.528-10.5-27.962-19.657-42.896-27.981C1487.533,58.392,1486.955,59.438,1486.346,60.92z
		 M1229.321,85.569c0.858,1.717,1.871,2.658,3.419,3.427c6.167-5.706,13.274-10.201,20.295-14.843
		c7.073-4.677,14.244-9.191,21.744-13.115c-0.803-1.626-1.309-2.732-2.57-3.517C1257.326,65.914,1242.838,74.996,1229.321,85.569z
		 M1230.272,390.569c-10.858-13.137-19.598-27.604-28.161-42.266c-0.955,0.572-1.633,0.941-2.268,1.373
		c-0.354,0.24-0.639,0.58-1.117,1.029c8.528,14.994,17.527,29.598,28.382,43.262c1.022-0.977,1.598-1.48,2.118-2.037
		C1229.596,391.538,1229.891,391.075,1230.272,390.569z M1558.788,348.421c-8.523,14.756-17.294,29.084-28.024,42.117
		c0.858,1.297,1.635,2.475,3.529,3.123c10.354-13.594,19.633-27.945,27.902-42.92
		C1561.281,349.585,1560.272,348.96,1558.788,348.421z M1174.814,299.321c5.986,16.762,13.178,32.766,21.863,48.131
		c1.605-0.541,2.689-1.197,3.523-2.467c-8.664-14.871-15.425-30.656-21.602-46.504
		C1177.205,298.212,1176.319,298.688,1174.814,299.321z M1277.967,58.975c15.021-8.771,30.814-15.496,46.713-21.719
		c-0.008-1.497-0.197-2.545-1.242-3.619c-16.52,5.91-32.553,13.042-47.852,21.784C1276.107,56.963,1276.805,57.92,1277.967,58.975z
		 M1485.68,55.556c-15.664-8.875-31.66-16.071-48.221-21.961c-0.883,1.26-1.241,2.26-1.041,3.721
		c15.998,6.151,31.791,13.076,46.844,21.728C1484.104,57.83,1484.727,56.929,1485.68,55.556z M1564.24,347.583
		c8.811-15.561,16.017-31.547,21.89-48.137c-1.331-0.803-2.306-1.244-3.753-0.934c-6.145,15.91-12.977,31.662-21.582,46.508
		C1561.621,346.251,1562.715,346.782,1564.24,347.583z M1176.826,184.606c4.545-16.969,10.79-33.263,18.234-49.191
		c-0.623-0.45-1.035-0.815-1.508-1.068c-0.455-0.245-0.975-0.376-1.77-0.668c-7.439,16.361-13.729,32.939-18.176,50.124
		C1174.551,184.528,1175.366,184.77,1176.826,184.606z M1435.767,449.528c17.377-4.678,34.036-10.752,50.132-18.27
		c-0.207-1.516-0.686-2.438-1.854-3.164c-15.773,7.404-32.099,13.58-49.043,18.172c0.055,0.771,0.025,1.209,0.131,1.611
		C1435.266,448.388,1435.507,448.868,1435.767,449.528z M1587.407,183.669c-4.589-17.093-10.674-33.747-18.18-49.837
		c-1.526,0.168-2.431,0.677-3.216,1.881c3.975,7.683,6.789,15.97,10.221,24.002c3.467,8.115,5.047,16.881,8.377,25.237
		C1585.686,184.518,1586.623,184.644,1587.407,183.669z M1326.043,446.554c-8.248-3.225-16.913-4.828-24.977-8.246
		c-8.12-3.439-16.444-6.385-24.402-10.379c-0.509,0.768-0.837,1.207-1.1,1.68c-0.204,0.371-0.328,0.785-0.645,1.566
		c16.252,7.586,32.896,13.689,50.229,18.314c0.244-0.48,0.497-0.844,0.611-1.24C1325.906,447.737,1325.941,447.194,1326.043,446.554
		z M1585.25,188.444c4.191,14.823,6.621,29.672,6.309,44.889c-0.033,1.605,0.75,2.197,2.363,1.893
		c0.109-0.421,0.297-0.841,0.316-1.268c0.691-15.225-1.375-30.123-5.288-44.808C1588.32,186.783,1587.018,187.682,1585.25,188.444z
		 M1166.807,235.253c3.024,0.03,2.682-1.776,2.66-3.265c-0.186-13.179,1.713-26.082,5.012-38.814
		c0.406-1.565,1.188-3.106,0.923-4.794c-2.275-1.553-3.1-0.541-3.612,1.683c-1.695,7.348-3.367,14.687-4.254,22.198
		C1166.637,219.878,1166.563,227.488,1166.807,235.253z M1389.174,456.241c14.635,0.611,28.865-1.809,42.871-5.754
		c0.031-2.273-0.385-3.318-2.701-2.693c-12.539,3.402-25.24,5.791-38.301,5.715C1389.254,453.501,1388.641,454.249,1389.174,456.241
		z M1371.777,456.241c0.795-2.629-0.677-2.787-2.408-2.727c-5.113,0.18-10.148-0.613-15.215-1.109
		c-8.283-0.811-16.236-3.203-24.425-4.961c-0.263,0.518-0.526,0.875-0.622,1.271c-0.125,0.516-0.117,1.064-0.187,1.828
		C1343.037,454.358,1357.195,456.886,1371.777,456.241z M1328.453,36.087c13.996-3.683,27.975-6.448,42.275-7.294
		c1.496-0.089,2.252-0.713,1.84-2.434c-0.408-0.057-0.836-0.197-1.249-0.164c-13.902,1.125-27.723,2.792-41.361,5.84
		C1327.261,32.639,1326.86,33.644,1328.453,36.087z M1388.38,26.198c-0.329,2.679,1.284,2.528,2.745,2.634
		c9.98,0.729,19.857,2.149,29.606,4.429c3.967,0.929,7.94,1.825,11.878,2.728c1.549-2.363,1.165-3.551-1.59-3.938
		c-2.74-0.384-5.44-1.051-8.152-1.617C1411.557,28.074,1400.088,27.059,1388.38,26.198z M1177.379,294.526
		c-3.654-13.604-6.295-27.31-7.241-41.304c-0.109-1.619-0.909-2.064-2.515-1.995c0.783,14.978,2.869,29.71,6.327,44.139
		C1175.322,295.72,1176.229,295.45,1177.379,294.526z M1583.593,294.577c2.556,1.662,3.693,1.154,4.074-1.543
		c0.386-2.734,1.06-5.432,1.616-8.143c2.229-10.854,3.375-21.837,4.037-32.885c-1.74-0.616-2.393-0.039-2.464,1.584
		c-0.087,1.991-0.254,3.981-0.489,5.963C1588.973,271.342,1586.818,282.989,1583.593,294.577z M1286.346,165.779
		c-3.816,5.874-7.268,11.839-10.196,18.132c5.303,2.256,5.296,2.252,7.979-2.113c0.983-1.602,1.967-3.208,3.012-4.77
		C1290.87,171.457,1290.881,171.464,1286.346,165.779z M1435.735,346.962c6.356-3.061,12.324-6.373,18.104-10.225
		c-5.619-4.563-5.611-4.551-11.006-0.934c-1.566,1.051-3.171,2.043-4.775,3.033C1433.699,341.522,1433.693,341.517,1435.735,346.962
		z M1475.234,313.485c3.088-4.506,6.492-8.42,8.301-13.414c-2.283-0.887-4.329-1.68-6.693-2.598
		c-2.307,4.029-5.396,7.449-8.246,11.117C1470.617,310.708,1472.638,312.19,1475.234,313.485z M1435.43,142.868
		c4.154,2.428,7.529,5.434,11.117,8.27c2.098-2.136,3.834-4.059,4.744-6.705c-4.311-3.088-8.283-6.401-13.256-8.271
		C1437.148,138.448,1436.354,140.493,1435.43,142.868z M1309.646,144.604c1.258,2.512,2.679,4.689,4.997,6.501
		c3.427-3.082,7.068-5.758,10.888-8.365c-0.896-2.274-1.728-4.389-2.632-6.685C1317.922,138.292,1313.764,141.323,1309.646,144.604z
		 M1292.395,308.423c-3.042-3.453-5.795-7.035-8.32-10.916c-2.307,0.902-4.421,1.732-6.723,2.631
		c2.211,4.982,5.271,9.125,8.516,13.262C1288.402,312.169,1290.556,310.712,1292.395,308.423z M1471.914,173.902
		c1.688,2.683,3.398,5.357,5.063,8.06c2.555,4.148,3.045,4.282,7.866,1.857c-2.387-4.935-4.931-9.77-8.012-14.465
		C1475.023,170.895,1473.279,172.038,1471.914,173.902z M1304.297,217.246c11.771,8.406,24.158,15.819,36.428,23.414
		c2.338,1.448,4.948,0.96,7.549,0.23C1333.189,233.711,1318.73,225.511,1304.297,217.246z M1289.297,218.333
		c0.691,0.535,1.098,0.905,1.555,1.193c11.366,7.163,23.156,13.639,34.32,21.131c0.992,0.666,2.039,1.227,3.367,0.484
		c-0.248-0.315-0.395-0.64-0.646-0.803c-11.49-7.381-22.989-14.749-34.49-22.112
		C1292.212,217.464,1290.985,217.249,1289.297,218.333z M1405.666,150.458c-0.43,0.323-0.66,0.417-0.766,0.588
		c-7.042,11.534-14.08,23.072-21.094,34.625c-0.587,0.967-1.08,2.035-0.186,3.754c7.53-11.955,14.782-23.464,22.027-34.979
		C1406.409,153.237,1406.421,151.986,1405.666,150.458z M1355.429,318.14c0.306,0.189,0.492,0.375,0.569,0.336
		c0.188-0.092,0.365-0.264,0.479-0.445c6.893-11.006,13.811-21.992,20.641-33.037c1.502-2.428,0.949-5.146,0.477-7.839
		C1370.773,291.177,1363.383,304.817,1355.429,318.14z M1355.244,335.7c0.449-0.34,0.676-0.436,0.785-0.605
		c7.227-11.43,13.625-23.363,21.127-34.625c0.623-0.936,1.125-2.021,0.184-3.758c-7.545,11.953-14.813,23.455-22.063,34.971
		C1354.52,332.884,1354.59,334.173,1355.244,335.7z M1312.213,339.841c4.422,2.789,8.633,5.057,13.66,7.346
		c-0.465-2.588,2.242-4.732-0.031-6.498c-3.088-2.398-6.641-4.195-10.15-6.346C1314.524,336.188,1313.477,337.845,1312.213,339.841z
		 M1472.532,267.82c-11.58-7.139-22.896-14.114-34.213-21.091c-0.944-0.583-1.906-0.754-3.538-0.084
		c11.664,7.424,22.863,14.555,34.069,21.677C1470.018,269.064,1471.158,268.895,1472.532,267.82z M1405.25,168.324
		c-1.609,0.512-1.824,1.426-2.249,2.101c-5.964,9.474-11.801,19.029-17.886,28.423c-1.99,3.075-2.486,6.166-1.703,9.71
		C1390.02,194.976,1397.296,181.777,1405.25,168.324z M1416.096,246.672c13.969,6.752,27.389,14.47,40.892,22.034
		c-10.335-7.521-21.372-13.907-32.071-20.822C1422.078,246.052,1419.271,245.936,1416.096,246.672z M1492.943,201.066
		c-2.092,1.486-5.678,0.677-5.213,4.182c0.406,3.079,1.92,6.011,2.946,9.008c2.479-0.236,4.604-0.438,7.116-0.676
		C1496.135,209.302,1494.633,205.428,1492.943,201.066z M1267.971,201.553c-1.738,3.951-3.332,7.796-4.546,12.09
		c2.392,0.201,4.545,0.381,6.603,0.554c0.261-0.275,0.484-0.407,0.55-0.594c0.62-1.775,1.222-3.557,1.817-5.341
		C1274.089,203.177,1273.794,202.696,1267.971,201.553z M1275.688,297.062c2.494-0.615,4.543-1.266,6.252-2.906
		c-1.83-3.313-3.576-6.473-5.339-9.662c-2.05,0.504-4.064,0.43-5.968,1.713C1272.322,289.835,1273.944,293.319,1275.688,297.062z
		 M1490.48,285.985c-2.297-0.85-4.197-1.268-6.182-1.365c-1.785,3.271-3.513,6.439-5.348,9.805c2.184,1.117,3.969,2.385,6.426,2.494
		C1487.049,293.339,1488.672,289.858,1490.48,285.985z M1434.91,134.347c-3.625-1.681-7.192-3.334-10.836-5.024
		c-1.127,2.096-1.226,4.063-1.58,6.04c3.283,1.798,6.449,3.531,9.697,5.309C1433.682,138.734,1434.615,136.819,1434.91,134.347z
		 M1337.039,129.551c-2.963,0.628-5.374,2.578-8.191,3.445c-3.016,0.928-3.141,2.598-1.717,4.932
		c0.554,0.908,0.658,2.156,1.998,2.604c3.113-1.731,6.27-3.484,9.391-5.22C1338.116,133.263,1338.054,131.364,1337.039,129.551z
		 M1377.957,361.442c-0.417,0.1-0.719,0.078-0.813,0.207c-4.779,6.664-9.064,13.65-13.283,20.674
		c-0.832,1.385-0.637,2.848,0.296,4.59c4.61-7.236,9.019-14.121,13.383-21.033C1378.408,364.503,1378.162,362.987,1377.957,361.442z
		 M1238.438,226.693c0.408,0.52,0.551,0.835,0.795,0.992c6.716,4.327,13.435,8.648,20.17,12.942
		c1.543,0.984,3.221,1.169,5.119,0.579c-0.25-0.381-0.36-0.726-0.596-0.878c-6.975-4.535-13.962-9.054-20.952-13.567
		C1241.637,225.898,1240.24,226.118,1238.438,226.693z M1396.813,99.117c-4.643,7.33-8.981,14.139-13.272,20.979
		c-0.853,1.36-0.864,2.849-0.266,4.255c0.731,0.124,0.948-0.319,1.171-0.668c4.176-6.539,8.344-13.083,12.504-19.633
		C1397.856,102.622,1397.739,101.181,1396.813,99.117z M1257.642,223.681c6.332,5.323,25.741,17.449,28.61,17.542
		c-8.302-6.361-16.342-12.201-24.592-17.753C1260.529,222.709,1259.157,222.756,1257.642,223.681z M1400.131,118.773
		c-5.196,5.89-16.938,25.134-16.664,27.655c6-7.845,11.59-15.651,16.883-23.669C1401.145,121.557,1401.068,120.286,1400.131,118.773
		z M1486.131,200.298c2.021-0.83,3.721-1.527,5.557-2.28c-1.791-3.674-3.473-7.13-5.302-10.88c-1.788,1.079-3.829,0.668-5.36,2.009
		C1482.719,192.848,1484.369,196.45,1486.131,200.298z M1274.463,187.364c-1.754,3.681-3.428,7.198-5.15,10.812
		c2.172,0.777,3.901,1.395,5.653,2.022c1.743-3.889,3.388-7.552,5.114-11.408C1278.018,188.267,1276.336,187.839,1274.463,187.364z
		 M1330.129,342.815c-0.555,2.15-0.988,3.832-1.484,5.748c3.625,1.738,7.143,3.428,10.783,5.172c0.785-2.119,1.423-3.844,2.15-5.814
		C1337.611,346.61,1334.092,344.772,1330.129,342.815z M1419.455,348.128c0.737,1.906,1.401,3.621,2.178,5.629
		c3.687-1.801,7.195-3.516,10.766-5.258c-0.562-2.006-1.029-3.674-1.549-5.533C1426.997,344.712,1423.4,346.341,1419.455,348.128z
		 M1360.853,367.919c6.155-9.479,11.978-18.445,17.798-27.41c-1.035-0.395-1.405-0.342-1.57-0.129
		c-5.654,7.383-11.055,14.951-16.273,22.65C1359.907,364.358,1359.951,365.694,1360.853,367.919z M1523.398,259.174
		c-6.693-4.29-13.115-8.439-19.58-12.515c-1.354-0.853-2.894-0.583-5.063-0.231c7.046,5.125,13.886,9.377,20.831,13.46
		C1520.67,260.524,1521.959,260.274,1523.398,259.174z M1340.303,128.175c1.107,2.101,1.031,4.28,2.408,6.129
		c2.042-0.827,3.975-1.611,5.908-2.389c4.115-1.657,4.465-2.39,3.254-6.942C1348.041,125.497,1344.422,126.787,1340.303,128.175z
		 M1418.627,134.408c0.726-2.387,1.29-4.243,1.902-6.254c-3.907-1.349-7.568-2.752-11.814-3.149
		c0.232,2.201-1.217,4.654,1.393,5.964C1412.74,132.292,1415.579,133.2,1418.627,134.408z M1441.32,273.413
		c-14.589-8.969-30.615-16.728-33.586-16.323C1419.68,265.519,1435.61,273.373,1441.32,273.413z M1278.526,219.272
		c-0.185,0.353-0.37,0.707-0.556,1.061c6.078,5.394,31.485,21.022,34.828,20.881C1300.993,233.656,1289.76,226.464,1278.526,219.272
		z M1477.517,246.553c5.177,3.791,9.95,7.325,14.765,10.801c2.688,1.94,5.43,3.813,8.186,5.654c1.284,0.86,2.512,0.291,3.706-0.393
		C1498.452,257.589,1480.359,246.411,1477.517,246.553z M1404.499,139.662c-0.341-0.167-0.683-0.334-1.023-0.502
		c-5.022,5.491-20.175,30.304-20.066,33.814C1390.711,161.442,1397.605,150.552,1404.499,139.662z M1356.019,347.126
		c1.78,0.025,2.073-0.451,2.368-0.91c6.242-9.682,12.488-19.359,18.709-29.055c0.747-1.166,0.679-1.211,0.164-3.57
		C1370.16,324.8,1363.243,335.722,1356.019,347.126z M1335.473,242.161c0.195-0.367,0.391-0.734,0.585-1.102
		c-6.491-5.362-36.987-24.017-39.788-23.995C1309.602,225.6,1322.537,233.881,1335.473,242.161z M1378.039,289.956
		c-4.311,3.932-23.799,35.912-23.709,38.564C1362.383,315.384,1370.77,303.011,1378.039,289.956z M1483.129,266.9
		c0.203-0.325,0.406-0.651,0.609-0.976c-0.1-0.187-0.148-0.447-0.305-0.549c-9.467-6.181-18.939-12.354-28.421-18.511
		c-0.912-0.593-1.888-1.052-3.398-0.117C1462.27,253.56,1472.699,260.232,1483.129,266.9z M1352.264,351.771
		c-7.185-3.225-8.546-2.754-9.303,3.275c2.809,1.398,5.731,2.607,8.893,3.428C1351.993,356.198,1352.121,354.11,1352.264,351.771z
		 M1407.49,158.642c-0.358-0.221-0.715-0.441-1.075-0.661c-7.962,12.583-15.925,25.167-23.886,37.75
		c0.393,0.241,0.785,0.482,1.178,0.723C1391.635,183.85,1399.563,171.246,1407.49,158.642z M1428.553,245.568
		c-0.184,0.362-0.367,0.722-0.549,1.084c6.301,5.239,34.832,22.647,37.605,22.593
		C1452.994,261.187,1440.773,253.378,1428.553,245.568z M1494.113,273.489c-6.402-0.604-7.455,0.327-8.326,7.307
		c1.824,0.566,3.672,1.14,5.867,1.823C1492.438,279.474,1493.951,276.695,1494.113,273.489z M1216.657,230.562
		c4.851,3.234,9.571,6.299,14.194,9.504c1.92,1.332,3.828,1.818,6.654,1.003c-5.904-3.78-11.361-7.29-16.838-10.768
		C1219.396,229.493,1218.143,230.07,1216.657,230.562z M1390.84,96.327c5.215-5.288,5.613-7.025,3.047-12.083
		c-3.835,6.596-7.596,13.065-11.355,19.534c0.324,0.189,0.652,0.378,0.978,0.567c1.407-2.224,2.76-4.483,4.231-6.662
		c1.512-2.237,2.619-4.789,5.264-6.321C1392.283,93.018,1391.563,94.672,1390.84,96.327z M1410.769,357.886
		c2.796-0.803,5.144-1.635,7.284-2.877c-0.826-6.09-2.682-6.748-8.799-3.158C1409.723,353.716,1410.199,355.616,1410.769,357.886z
		 M1377.777,388.407c-3.63,5.684-6.912,10.785-10.147,15.92c-0.817,1.297-0.41,2.59,0.176,4.215
		c3.04-4.625,5.771-8.924,8.663-13.111C1377.807,393.489,1378.501,391.53,1377.777,388.407z M1382.621,96.488
		c0.33,0.167,0.664,0.334,0.996,0.501c3.254-5.066,6.533-10.118,9.742-15.212c0.748-1.189,0.377-2.465-0.339-4.642
		C1389.818,84.356,1383.696,89.057,1382.621,96.488z M1243.724,241.9c0.188-0.334,0.376-0.668,0.564-1.001
		c-5.263-3.41-10.523-6.82-15.785-10.229c2.399-0.547,3.843,1.326,6.052,1.306c-3.174-3.686-6.786-4.545-11.498-2.397
		C1230.122,233.792,1236.924,237.847,1243.724,241.9z M1265.063,222.253c8.026,6.303,16.335,12.215,24.345,18.53
		c1.316,1.038,2.711,0.801,4.898,0.405C1284.227,234.445,1274.346,228.832,1265.063,222.253z M1378.441,382.413
		c-0.316-0.209-0.636-0.416-0.953-0.621c-3.316,4.625-5.834,9.836-10.081,13.863c0.69-1.664,1.379-3.328,2.306-5.566
		c-4.672,4.633-5.131,6.836-2.677,11.658C1370.881,395.231,1374.66,388.823,1378.441,382.413z M1351.4,228.813
		c-14.818-10.148-25.417-15.46-31.408-15.714C1331.213,218.075,1340.839,224.316,1351.4,228.813z M1340.908,181.809
		c0.847,7.137,0.166,14.079,2.723,20.585c0.341-5.958,0.385-11.866,0.311-17.771C1343.923,183.12,1342.768,182.422,1340.908,181.809
		z M1419.014,286.37c0,5.492-0.021,10.986,0.012,16.48c0.009,1.793,1.016,2.742,3.206,3.117
		C1421.184,299.214,1422.114,292.499,1419.014,286.37z M1545.751,255.628c-6.954-2.86-11.148-9.272-18.653-9.116
		c4.072,3.105,8.388,5.76,12.605,8.563C1541.292,256.132,1542.83,256.625,1545.751,255.628z M1267.34,275.125
		c0.369,2.815,1.137,5.146,2.279,7.452c2.03-0.661,3.884-1.263,5.944-1.934c-0.645-2.275-1.399-4.283-2.575-6.237
		C1271.18,274.637,1269.454,274.855,1267.34,275.125z M1520.328,245.806c-0.168,0.328-0.336,0.654-0.503,0.981
		c4.454,3.383,9.685,5.707,14.38,9.799c-2.076,0.134-2.973-0.82-4.054-1.279c-1.038-0.443-2.033-0.978-3.048-1.473
		c4.873,4.768,6.361,5.105,11.393,2.713C1532.337,252.906,1526.332,249.356,1520.328,245.806z M1420.481,204.424
		c5.585-0.337,11.116-0.18,16.616-0.584c1.758-0.13,2.672-1.049,2.944-3.205C1433.295,201.904,1426.516,201.13,1420.481,204.424z
		 M1320.389,286.413c6.649-1.265,13.475-0.338,19.5-3.804c-5.552,0.397-11.087,0.212-16.59,0.647
		C1321.644,283.388,1320.764,284.361,1320.389,286.413z M1469.422,246.467c9.684,6.027,18.63,11.718,27.446,17.61
		c-7.339-5.917-14.899-11.486-22.436-17.089C1473.15,246.034,1471.791,246.041,1469.422,246.467z M1350.143,237.134
		c-11.021-5.389-21.947-10.971-32.946-16.405C1322.698,225.009,1346.694,237.148,1350.143,237.134z M1210.088,232.12
		c5.936,2.957,10.711,7.695,17.299,9.084c-4.454-3.535-9.191-6.574-13.92-9.626C1212.359,230.863,1211.378,231.114,1210.088,232.12z
		 M1255.049,241.525c-3.468-4.109-19.934-13.926-22.363-13.395C1240.315,232.658,1247.213,237.877,1255.049,241.525z
		 M1377.697,331.454c-5.004,7.842-9.645,15.115-14.286,22.387c5.04-5.746,9.585-11.822,14.099-17.922
		C1378.354,334.78,1378.377,333.483,1377.697,331.454z M1378.045,398.88c-5.152,4.424-9.979,13.58-8.646,16.146
		C1372.201,409.462,1376.563,404.958,1378.045,398.88z M1383.199,87.458c3.1-5.248,8.301-9.418,8.821-16.031
		C1388.775,76.61,1384.311,81.125,1383.199,87.458z M1383.08,115.364c4.91-6.713,9.487-13.624,13.02-21.155
		C1391.297,100.986,1386.287,107.641,1383.08,115.364z M1378.079,370.856c-4.22,3.83-13.214,19.045-12.83,21.762
		C1369.61,385.081,1374.712,378.481,1378.079,370.856z M1528.259,259.407c0.255-0.432,0.509-0.863,0.763-1.294
		c-6.655-4.091-13.049-8.619-19.93-12.335c-0.217,0.359-0.434,0.719-0.65,1.078C1515.047,251.041,1521.652,255.223,1528.259,259.407
		z M1442.623,264.745c-8.645-5.607-17.643-10.482-27.018-14.617c-0.154,0.296-0.307,0.594-0.461,0.889
		C1424.305,255.593,1433.463,260.169,1442.623,264.745z M1396.877,133.334c-0.154-0.149-0.308-0.298-0.462-0.447
		c-4.272,5.757-8.559,11.504-12.804,17.281c-0.807,1.098-0.758,2.333-0.313,4.038c0.645-0.799,1.016-1.182,1.3-1.623
		C1388.698,146.172,1392.786,139.751,1396.877,133.334z M1536.57,246.245c5.948,5.784,12.13,9.018,15.408,8.079
		C1546.505,251.618,1542.371,247.356,1536.57,246.245z M1403.388,134.618c-0.373-0.229-0.745-0.456-1.116-0.684
		c-4.719,7.619-9.434,15.239-14.15,22.859c0.236,0.144,0.473,0.289,0.709,0.434C1393.371,149.5,1399.041,142.463,1403.388,134.618z
		 M1360.115,303.019c5.637-8.881,10.418-18.188,14.682-27.753c-0.32-0.162-0.641-0.32-0.959-0.479
		C1369.263,284.197,1364.688,293.608,1360.115,303.019z M1400.184,184.184c-5.496,8.54-10.155,17.683-14.376,27.041
		c0.325,0.162,0.649,0.322,0.976,0.483C1391.25,202.533,1395.716,193.358,1400.184,184.184z M1357.386,351.462
		c0.446,0.236,0.892,0.473,1.337,0.707c4.499-7.303,9-14.607,13.502-21.916c-0.209-0.125-0.418-0.248-0.625-0.377
		C1366.862,337.073,1362.125,344.267,1357.386,351.462z M1250.443,224.337c-0.215,0.322-0.43,0.644-0.645,0.965
		c8.11,5.437,16.222,10.872,24.331,16.308c0.171-0.256,0.343-0.513,0.514-0.769C1266.578,235.34,1258.51,229.838,1250.443,224.337z
		 M1361.498,374.665c0.318,0.207,0.637,0.42,0.955,0.627c5.197-7.828,10.395-15.656,15.593-23.482
		c-0.24-0.16-0.481-0.32-0.724-0.479C1372.049,359.108,1366.772,366.884,1361.498,374.665z M1399.46,111.545
		c-0.336-0.216-0.671-0.432-1.007-0.648c-5.078,7.683-10.154,15.366-15.233,23.049c0.236,0.153,0.474,0.308,0.712,0.46
		C1389.107,126.787,1394.283,119.167,1399.46,111.545z M1273.709,220.309c-0.242,0.399-0.484,0.798-0.727,1.197
		c7.402,4.867,14.828,9.694,22.866,13.531C1288.47,230.127,1281.09,225.217,1273.709,220.309z M1488.734,265.372
		c-6.342-4.934-13.108-9.181-20.246-12.822C1475.222,256.851,1481.314,262.191,1488.734,265.372z M1511.352,261.908
		c0.191-0.34,0.385-0.681,0.574-1.022c-7.432-4.963-14.867-9.928-22.303-14.892c-0.164,0.254-0.331,0.509-0.496,0.766
		C1496.535,251.81,1503.943,256.859,1511.352,261.908z M1412.406,298.952c0.386-0.076,0.77-0.156,1.154-0.232
		c-0.73-6.555-1.465-13.109-2.195-19.662C1411.104,285.757,1410.797,292.456,1412.406,298.952z M1414.225,212.405
		c6.518-0.265,13.303,0.302,19.682-1.895c-0.05-0.327-0.096-0.655-0.145-0.982C1427.248,210.487,1420.737,211.445,1414.225,212.405z
		 M1346.953,274.543c-6.704-0.889-18.915,0.906-20.309,3.026C1333.337,276.573,1339.832,275.605,1346.953,274.543z
		 M1347.058,186.429c-0.328,0.027-0.657,0.054-0.985,0.081c0.743,6.807,0.187,13.748,2.687,20.378
		C1348.191,200.069,1347.625,193.249,1347.058,186.429z M1351.639,208.339c0.209-6.041,0.805-12.257-0.999-18.188
		c-0.318,0.038-0.636,0.075-0.954,0.112C1350.336,196.289,1350.988,202.314,1351.639,208.339z M1415.99,301.575
		c0.288-0.023,0.575-0.051,0.862-0.072c-0.397-6.596-0.261-13.236-1.543-19.754c-0.298,0.025-0.595,0.052-0.892,0.077
		C1414.943,288.409,1415.467,294.993,1415.99,301.575z M1436.038,206.941c-4.712-1.124-17.954,0.681-20.101,2.458
		C1422.783,208.563,1429.409,207.752,1436.038,206.941z M1190.801,235.056c3.586,2.529,6.861,5.546,11.363,6.107
		C1198.535,238.763,1195.481,235.283,1190.801,235.056z M1324.685,280.102c6.185,1.013,17.77-0.706,19.667-2.405
		C1337.703,278.51,1331.193,279.306,1324.685,280.102z M1388.801,51.578c-3.896,4.12-5.645,7.609-5.443,10.561
		C1385.313,58.678,1388.755,56.008,1388.801,51.578z M1377.721,424.149c-1.928,3.477-5.935,5.973-5.385,10.68
		C1374.51,431.464,1377.415,428.481,1377.721,424.149z M1561.617,246.519c3.107,1.773,5.395,5.241,9.636,4.663
		C1568.206,249.288,1565.645,246.384,1561.617,246.519z M1311.069,169.055c0.351-0.075,0.699-0.151,1.05-0.227
		c-1.074-3.528,0.527-7.639-3.11-10.61C1309.695,161.831,1310.383,165.443,1311.069,169.055z M1453.324,170.062
		c0.09,0.358,0.179,0.715,0.268,1.073c3.371-1.031,7.36,0.406,10.02-3.46C1460.182,168.471,1456.754,169.267,1453.324,170.062z
		 M1303.947,153.923c0.533,3.295-0.121,7.024,2.705,9.746C1306.223,160.321,1306.533,156.784,1303.947,153.923z M1467.613,162.49
		c-3.272,0.652-6.929,0.137-9.416,3.083C1461.455,164.89,1465.025,165.24,1467.613,162.49z M1451.641,319.974
		c0.219,3.412-1.022,7.166,2.102,9.9C1453.45,326.479,1453.258,323.06,1451.641,319.974z M1296.979,319.374
		c3.382-0.793,6.765-1.584,10.146-2.379c-0.083-0.318-0.166-0.639-0.249-0.959C1303.471,316.739,1299.605,315.706,1296.979,319.374z
		 M1293.018,324.599c3.156-0.771,6.756-0.121,9.059-3.055C1298.905,322.208,1295.379,321.792,1293.018,324.599z M1459.227,333.899
		c-0.561-3.078,0.191-6.553-2.767-8.861C1457.299,328.03,1456.544,331.472,1459.227,333.899z M1201.123,232.763
		c-0.133,0.274-0.264,0.548-0.396,0.821c3.933,2.382,7.863,4.763,11.796,7.146C1208.852,237.854,1205.496,234.474,1201.123,232.763z
		 M1431.313,300.729c-0.469,5.852,0.221,11.572,1.629,13.543C1432.36,309.444,1431.837,305.087,1431.313,300.729z M1403.857,283.858
		c0.342,0.016,0.684,0.035,1.026,0.051c-0.243-3.888-0.486-7.776-0.729-11.664C1403.813,276.133,1402.965,280.033,1403.857,283.858z
		 M1390.967,62.095c-0.287-0.173-0.574-0.348-0.863-0.522c-2.015,3.355-4.029,6.709-6.045,10.063
		C1386.756,68.695,1389.561,65.818,1390.967,62.095z M1330.222,174.135c0.501,4.123,1.003,8.247,1.505,12.37
		C1331.811,182.3,1331.921,178.097,1330.222,174.135z M1376.27,415.46c-2.438,2.664-5.204,5.139-5.453,9.088
		C1372.635,421.519,1374.452,418.489,1376.27,415.46z M1170.348,238.476c2.582,1.41,4.336,3.337,7.756,2.763
		C1175.525,239.77,1173.82,237.723,1170.348,238.476z M1400.307,267.971c-0.875,2.723-0.938,5.5,0.125,8.248
		C1401.319,273.49,1400.816,270.762,1400.307,267.971z M1407.818,292.122c0.308,0.023,0.615,0.047,0.922,0.072
		c-0.27-3.57-0.539-7.139-0.81-10.708c-0.038,0.009-0.073,0.021-0.112,0.03C1407.818,285.052,1407.818,288.587,1407.818,292.122z
		 M1181.096,236.746c2.828,1.57,5.316,3.672,8.458,4.486C1186.096,238.157,1183.592,236.811,1181.096,236.746z M1158.966,182.37
		c1.642,1.964,3.016,3.44,5.036,0.823C1162.652,180.718,1160.92,181.966,1158.966,182.37z M1602.094,182.395
		c-2.064-0.445-3.878-1.658-5.106,0.852C1599.258,185.853,1600.473,184.116,1602.094,182.395z M1324.375,458.931
		c-2.091,1.623-1.292,3.213-0.575,5.182C1325.47,462.419,1327.124,461.12,1324.375,458.931z M1437.541,464.228
		c0.068-2.139,1.525-4.012-1.053-5.145C1434.655,461.425,1434.655,461.425,1437.541,464.228z"/>
	<path display="inline" fill="#438FCD" d="M1357.563-59.179c4.538,0,8.691-0.191,12.814,0.077c2.232,0.145,3.37,2.388,4.736,3.905
		c6.619,7.338,13.118,14.784,19.683,22.171c0.561,0.63,0.917,1.523,2.274,1.818c0-8.568,0-17.041,0-25.663
		c-1.967-1.13-4.836,0.84-7.006-1.397c1.551-1.468,3.3-0.824,4.854-0.924c2.655-0.169,5.329-0.22,7.991-0.162
		c1.175,0.024,3.186-0.755,3.189,1.201c0.003,1.71-1.905,0.881-2.996,1.038c-0.852,0.122-1.725,0.097-2.625,0.139
		c0,8.597,0.025,17.002-0.01,25.408c-0.017,4.109-0.123,8.218-0.23,12.326c-0.029,1.071,0.178,2.375-1.224,2.798
		c-1.556,0.468-1.978-0.948-2.815-1.789c-8.865-8.896-15.866-19.422-24.801-28.251c-0.387-0.383-0.859-0.68-1.666-1.307
		c0,9.334,0,18.323,0,27.424c1.59,0.769,3.404,0.2,5.133,0.451c0.908,0.132,1.857,0.285,1.832,1.475
		c-0.018,0.964-0.787,1.317-1.609,1.32c-4.441,0.016-8.882,0.005-13.322-0.045c-0.799-0.01-1.598-0.309-1.586-1.325
		c0.01-1,0.783-1.249,1.595-1.331c1.312-0.134,2.625-0.222,4.298-0.359c0-3.621-0.007-7.131,0.002-10.642
		c0.014-5.333-0.371-10.707,0.182-15.983c0.475-4.511-1.699-6.747-5.068-8.688C1360.004-56.177,1358.379-56.376,1357.563-59.179z"/>
	<path display="inline" fill="#438FCD" d="M1089.227,235.676c-1.958,4.085-2.559,8.074-3.572,11.907
		c-0.887,3.35-2.396,6.446-3.326,9.756c-0.217,0.772-0.486,1.558-1.49,1.47c-0.939-0.081-1.127-0.886-1.426-1.622
		c-3.617-8.943-7.195-17.901-10.943-26.788c-0.978-2.319-1.416-5.313-4.828-5.726c-0.555-0.066-0.843-0.692-0.736-1.317
		c0.133-0.78,0.715-1.153,1.411-1.152c4.884,0.006,9.769,0.04,14.651,0.114c0.72,0.01,1.264,0.481,1.206,1.293
		c-0.058,0.791-0.634,1.141-1.351,1.197c-1.505,0.116-3.014,0.18-4.861,0.284c2.872,6.715,7.066,12.392,9.313,19.936
		c1.568-4.486,2.896-8.179,4.146-11.898c0.668-1.99,1.199-4.026,1.801-6.039c0.287-0.96,0.524-1.991,1.758-2.169
		c1.276-0.185,1.707,0.804,2.197,1.672c3.43,6.086,7.054,12.077,9.27,18.768c0.222,0.67,0.253,1.591,1.465,1.884
		c2.17-7.26,5.75-14.071,6.791-22.076c-2.023-0.104-3.963-0.198-5.902-0.304c-0.807-0.044-1.68-0.211-1.783-1.14
		c-0.133-1.177,0.841-1.497,1.752-1.524c3.662-0.109,7.323-0.167,10.986-0.192c0.989-0.007,2.215,0.021,2.3,1.346
		c0.103,1.602-1.237,1.542-2.349,1.626c-0.545,0.041-1.09,0.095-2.045,0.179c-0.992,8.644-4.84,16.461-7.36,24.698
		c-0.746,2.435-1.761,4.788-2.612,7.194c-0.262,0.738-0.369,1.607-1.359,1.631c-1.066,0.028-1.476-0.818-1.863-1.644
		c-1.65-3.514-3.34-7.008-4.959-10.537C1093.839,242.867,1091.646,239.55,1089.227,235.676z"/>
	<path display="inline" fill="#438FCD" d="M1661.4,229.481c-0.232-4.404-3.422-3.392-6.074-3.421
		c-2.42-0.027-4.836-0.005-7.168-0.005c0,5.847,0,11.33,0,16.974c2.616,0,4.922-0.003,7.23,0.003
		c0.822,0.002,1.533-0.125,1.842-1.053c0.256-0.767,0.648-1.49,1.641-1.275c1.091,0.237,1.252,1.132,1.268,2.062
		c0.026,1.555,0.047,3.11,0.045,4.663c0,1.019-0.01,2.149-1.314,2.337c-1.332,0.194-1.613-0.862-1.815-1.89
		c-0.103-0.521-0.231-1.037-0.37-1.652c-2.77,0-5.412,0-8.312,0c0,4.508,0,9.002,0,13.787c3.863,0,7.802,0,12.247,0
		c0.477-0.178-0.027-1.192,0.368-1.796c0.821-1.251,1.774-1.288,2.602-0.051c1.458,2.183-0.009,5.223-2.593,5.25
		c-7.32,0.077-14.641,0.054-21.961,0.07c-1.149,0.003-2.407-0.054-2.688-1.397c-0.273-1.304,0.969-1.558,1.885-1.894
		c1.35-0.495,1.317-1.609,1.326-2.743c0.072-9.1,0.182-18.202,0.205-27.303c0.006-1.975-0.53-3.771-2.915-4.197
		c-0.81-0.145-1.619-0.503-1.577-1.423c0.051-1.087,0.998-1.443,1.919-1.446c7.658-0.023,15.316-0.033,22.975,0.024
		c1.694,0.013,2.541,1.102,2.78,2.76C1663.141,227.221,1663.908,228.71,1661.4,229.481z"/>
	<path display="inline" fill="#438FCD" d="M1386.779,512.13c-2.164,0-4.281,0.199-6.349-0.043c-3.413-0.398-4.257,1.42-4.273,4.293
		c-0.032,4.912,2.553,8.295,6.692,10.273c5.016,2.393,7.094,6.805,8.859,11.502c1.17,3.121,0.303,5.791-2.313,8.021
		c-3.902,3.328-8.346,4.967-13.447,4.838c-3.777-0.096-10.631-6.707-10.941-10.498c-0.057-0.699,0.051-1.338,0.668-1.768
		c0.834-0.582,1.541-0.111,2.051,0.463c0.655,0.736,1.154,1.611,1.709,2.436c3.119,4.623,9.129,5.568,13.303,2.166
		c2.002-1.633,2.431-3.334,0.686-5.387c-2.946-3.465-5.824-6.955-9.511-9.734c-3.538-2.668-6.237-5.842-5.784-10.883
		c0.423-4.666,3.098-7.938,7.889-8.209c3.98-0.229,7.985-0.006,11.98-0.035c1.428-0.01,1.997,0.736,2.088,2.018
		c0.117,1.662,0.227,3.324,0.302,4.988c0.042,0.949-0.142,1.844-1.337,1.891c-0.924,0.037-1.424-0.582-1.564-1.426
		C1387.23,515.522,1387.043,513.995,1386.779,512.13z"/>
	<path display="inline" fill="#438FCD" d="M1176.119,34.164c1.113,0.039,1.797,0.811,2.502,1.503
		c11.652,11.434,23.301,22.874,34.934,34.328c1.016,1.001,2.417,2.208,1.203,3.674c-1.303,1.572-2.617,0.282-3.636-0.73
		c-11.747-11.654-23.474-23.329-35.2-35.005c-0.796-0.792-1.567-1.637-1.094-2.912C1175.043,34.442,1175.511,34.183,1176.119,34.164
		z"/>
	<path display="inline" fill="#438FCD" d="M1215.605,409.421c-0.088,1.215-0.729,1.859-1.35,2.486
		c-11.664,11.736-23.332,23.471-35.013,35.191c-0.952,0.955-2.142,2.064-3.399,0.727c-1.123-1.197,0.029-2.273,0.867-3.129
		c11.582-11.818,23.182-23.621,34.785-35.416c0.863-0.879,1.789-1.736,3.197-1.232
		C1215.445,408.317,1215.551,408.983,1215.605,409.421z"/>
	<path display="inline" fill="#438FCD" d="M1586.324,35.738c-0.117,1.198-0.899,1.866-1.602,2.565
		c-11.408,11.367-22.822,22.728-34.24,34.083c-0.549,0.547-1.125,1.089-1.766,1.517c-0.787,0.524-1.688,0.688-2.43-0.078
		c-0.742-0.767-0.537-1.685-0.012-2.45c0.498-0.725,1.137-1.362,1.768-1.983c11.325-11.135,22.654-22.265,33.996-33.383
		c0.629-0.616,1.289-1.295,2.068-1.64C1585.425,33.792,1586.229,34.373,1586.324,35.738z"/>
	<path display="inline" fill="#438FCD" d="M1546.969,407.866c1.444,0.191,2.192,1.041,2.969,1.832
		c11.367,11.563,22.737,23.123,34.077,34.715c0.946,0.967,2.546,2.154,0.944,3.582c-1.289,1.15-2.459-0.139-3.396-1.082
		c-11.525-11.563-23.043-23.133-34.545-34.721c-0.919-0.926-2.049-1.857-1.443-3.436
		C1545.85,408.042,1546.519,407.901,1546.969,407.866z"/>
	<path display="inline" fill="#438FCD" d="M1221.251,75.991c2.305,0.147,4.096,1.092,4.198,3.896
		c0.101,2.749-2.059,5.026-4.718,4.806c-2.538-0.209-4.053-1.557-3.975-4.296C1216.834,77.724,1218.52,75.991,1221.251,75.991z"/>
	<path display="inline" fill="#438FCD" d="M1544.246,80.427c0.063,2.729-1.452,4.073-4,4.267c-2.543,0.194-4.605-1.881-4.69-4.503
		c-0.083-2.59,1.616-4.21,4.401-4.198C1542.508,76.004,1544.189,77.745,1544.246,80.427z"/>
	<path display="inline" fill="#438FCD" d="M1539.242,406.31c-2.914-0.092-4.149-1.707-4.223-4.24
		c-0.072-2.555,2.091-4.504,4.724-4.475c2.544,0.029,4.14,1.846,3.965,4.627C1543.527,405.091,1541.714,406.183,1539.242,406.31z"/>
	<path display="inline" fill="#438FCD" d="M1226,402.538c-0.342,2.262-1.543,3.828-4.297,3.752
		c-2.813-0.078-4.588-1.896-4.396-4.627c0.181-2.566,1.425-4.127,4.182-4.057C1224.109,397.671,1226.092,399.749,1226,402.538z"/>
	<path display="inline" fill="#438FCD" d="M1518.692,111.29c-3.018,4.41-2.007,6.545,2.946,7.043
		c1.061,0.106,2.546-0.181,2.434,1.452c-0.102,1.472-1.58,1.308-2.629,1.366c-3.878,0.213-7.245-2.64-7.246-6.067
		c-0.004-4.274,3.721-8.269,7.568-8.122c3.965,0.153,6.762,3.313,6.547,7.224c-0.128,2.32-1.152,2.908-3.248,2.145
		C1522.488,115.392,1520.709,113.415,1518.692,111.29z"/>
	<path display="inline" fill="#438FCD" d="M1511.006,111.166c-2.178,0.813-3.629,0.378-4.455-1.156
		c-0.992-1.846,0.844-2.423,1.834-3.349c1.684-1.576,3.579-2.981,4.355-5.284c-3.049-2.885-3.633-2.889-6.51-0.168
		c-1.045,0.987-2.094,1.977-3.213,2.876c-0.955,0.767-2.008,1.44-3.563,0.065c2.146-3.091,5.55-4.896,7.835-7.778
		c0.088-1.684-2.608-1.866-2.023-3.994c2.552-0.861,3.814,0.955,4.668,2.763c0.502,1.065,0.91,1.769,2.008,2.284
		c4.265,2.004,4.605,4.369,1.373,8.271C1512.021,107.255,1509.484,108.241,1511.006,111.166z"/>
	<path display="inline" fill="#438FCD" d="M1258.834,98.472c-0.712-2.059-1.451-4.109-2.128-6.179
		c-0.351-1.07-0.718-2.323,0.78-2.767c1.25-0.372,1.715,0.649,2.042,1.661c1.059,3.267,2.181,6.515,3.159,9.806
		c0.33,1.109,0.84,2.495-0.58,3.281c-1.181,0.655-2.088-0.198-2.964-0.898c-1.026-0.821-1.94-1.826-3.54-2.164
		c-0.506,1.886,0.659,3.403,0.967,5.045c0.191,1.028,0.29,2.002-0.639,2.731c-0.885,0.693-1.664,0.133-2.46-0.256
		c-2.787-1.36-5.729-2.428-8.222-4.346c-0.738-0.567-1.448-1.242-0.833-2.216c0.591-0.936,1.538-0.7,2.38-0.305
		c1.891,0.887,3.535,2.298,5.832,2.748c-0.088-2.317-0.725-4.402-1.533-6.453c-0.297-0.75-0.458-1.54,0.209-2.167
		c0.812-0.764,1.635-0.374,2.42,0.117c1.494,0.933,2.985,1.867,4.478,2.801C1258.412,98.765,1258.623,98.618,1258.834,98.472z"/>
	<path display="inline" fill="#438FCD" d="M1233.42,115.884c-1.035,0.64-0.822,2.114-2.4,2.192c-1.617-1.636-1.08-3.58,0.52-4.549
		c2.764-1.675,3.223-6.596,7.804-5.589c3.437,0.754,5.72,3.219,8.066,5.576c0.206,0.052,0.44,0.194,0.61,0.138
		c0.961-0.322,2.037-1.669,2.881-0.28c0.963,1.59-0.777,2.587-1.527,3.666c-0.848,1.222-1.994,0.657-2.787-0.272
		c-1.586-1.857-3.186-3.688-5.254-5.038c-1.561-1.019-3.156-1.876-4.684,0.006c-1.538,1.895-0.113,2.985,1.189,4.099
		c1.434,1.226,3.053,2.397,3.799,4.127c0.682,1.582,2.227,1.159,3.256,1.87c0.381,1.785-0.164,3.328-1.707,3.922
		c-1.889,0.728-2.411-1.184-2.98-2.383C1238.716,120.231,1235.978,118.308,1233.42,115.884z"/>
	<path display="inline" fill="#438FCD" d="M1515.756,373.095c1.01,1.334,2.08,1.617,3.176,1.814
		c3.299,0.596,4.318-0.184,4.594-3.557c0.065-0.793-0.006-1.695,0.957-1.865c1.12-0.201,1.451,0.664,1.71,1.592
		c0.792,2.84-0.554,5.498-3.283,6.365c-3.935,1.256-8.935-0.893-10.731-4.607c-2.079-4.303,0.625-8.801,5.395-8.912
		c1.217-0.029,2.535-0.023,3.156,1.32c0.544,1.176-0.088,2.15-0.824,3.023C1518.559,369.862,1517.186,371.435,1515.756,373.095z"/>
	<path display="inline" fill="#438FCD" d="M1504.464,379.411c2.251,0.832,3.998-0.633,5.927-0.836
		c2.461-0.262,3.71,1.02,4.463,3.098c1.268,3.502,0.723,5.906-1.868,7.262c-2.138,1.115-4.411,1.605-6.486-0.223
		c-0.257-0.223-0.208-0.799-0.298-1.203c1.266-1.211,2.633-0.242,3.879-0.436c1.961-0.303,3.066-1.109,2.651-3.318
		c-0.399-2.109-1.505-2.801-3.55-2.135c-1.049,0.342-2.135,0.574-3.213,0.828c-1.488,0.35-2.945,0.32-3.902-1.064
		c-1.041-1.502-0.583-3.031,0.456-4.303c1.09-1.332,2.007-3.072,4.134-2.941c1.021,0.063,1.581,0.83,1.746,1.754
		c0.21,1.156-0.44,1.625-1.551,1.525C1505.409,377.29,1505.025,378.335,1504.464,379.411z"/>
	<path display="inline" fill="#438FCD" d="M1249.949,387.233c3.016-1.139,5.536-2.139,8.092-3.039
		c1.119-0.396,2.613-1.02,3.146,0.568c0.544,1.621-1.062,1.865-2.176,2.291c-2.583,0.986-5.105,2.182-7.754,2.932
		c-3.615,1.021-5.021-0.529-4.056-4.184c0.306-1.156,0.705-2.287,1.103-3.563c-0.521-0.063-0.838-0.182-1.115-0.121
		c-1.658,0.354-3.616,1.801-4.895,0.084c-1.154-1.549,0.311-3.338,1.014-4.928c0.447-1.01,0.895-2.025,1.404-3.008
		c0.634-1.219,0.826-3.283,2.537-3.033c1.627,0.236,2.471,1.922,2.832,3.467c-0.962,1.262-1.721-0.078-2.801,0.197
		c-0.781,1.189-1.43,2.637-1.924,4.711c1.752-0.547,3.17-0.982,4.58-1.438c0.83-0.271,1.695-0.818,2.457,0.023
		c0.859,0.953,0.232,1.846-0.254,2.719C1251.17,382.659,1250.32,384.448,1249.949,387.233z"/>
	<path display="inline" fill="#438FCD" d="M1238.354,364.646c0.498,3.248,0.313,6.182-0.647,9.031
		c-0.692,2.059-2.288,3.047-4.317,3.041c-2.643-0.006-4.213-1.77-5.258-3.98c-0.895-1.893-0.047-3.477,1.268-4.803
		c0.797-0.805,1.902-1.498,2.935-0.553c1.116,1.021,0.14,1.725-0.711,2.332c-0.95,0.68-1.243,1.563-0.632,2.596
		c0.531,0.896,1.299,1.557,2.414,1.502c1.387-0.07,1.799-1.117,2.043-2.254c0.447-2.086,0.328-4.17,0.143-6.283
		c-0.198-2.24,0.76-3.695,3.275-3.453c2.375,0.227,5.437,2.973,5.038,4.586c-0.274,1.117-1.124,2.006-2.37,1.969
		c-1.268-0.035-1.141-0.932-0.992-1.93C1240.754,365.021,1239.584,365.015,1238.354,364.646z"/>
	<path display="inline" fill="#438FCD" d="M1392.072,243.328c-0.153,5.25-6.805,12.248-11.607,12.21
		c-4.988-0.038-11.84-7.557-11.49-12.603c0.383-5.491,6.953-12.225,11.727-12.018
		C1385.645,231.131,1392.219,238.307,1392.072,243.328z"/>
</g>
<text transform="matrix(1 0 0 1 212.0645 194.8784)" display="none" fill="#FFFFFF" font-family="'Montserrat-Bold'" font-size="60">Ups! Error 404</text>
<text transform="matrix(1 0 0 1 251.3452 260.6069)" display="none"><tspan x="0" y="0" display="inline" fill="#FFFFFF" font-family="'Montserrat-Light'" font-size="24">No encontramos la pgina que </tspan><tspan x="0" y="28.8" display="inline" fill="#FFFFFF" font-family="'Montserrat-Light'" font-size="24">estas buscando. </tspan></text>
<polygon display="none" fill-rule="evenodd" clip-rule="evenodd" fill="#4490CD" points="297.634,332.124 578.348,332.124 
	578.348,394.623 297.634,394.623 297.634,332.124 "/>
<text transform="matrix(1 0 0 1 326.647 373.2617)" display="none" fill="#FFFFFF" font-family="'Montserrat-Regular'" font-size="26.8592">Regresar a Inicio</text>
</svg>
