<?xml version="1.0" encoding="utf-8"?>
<!-- Generator: Adobe Illustrator 16.0.0, SVG Export Plug-In . SVG Version: 6.00 Build 0)  -->
<!DOCTYPE svg PUBLIC "-//W3C//DTD SVG 1.1//EN" "http://www.w3.org/Graphics/SVG/1.1/DTD/svg11.dtd">
<svg version="1.1" id="Layer_1" xmlns="http://www.w3.org/2000/svg" xmlns:xlink="http://www.w3.org/1999/xlink" x="0px" y="0px"
	 width="603.055px" height="613.472px" viewBox="0 0 603.055 613.472" enable-background="new 0 0 603.055 613.472"
	 xml:space="preserve">
<rect x="-1.08" y="-11.028" display="none" fill="#292E41" width="1920" height="1080"/>
<polygon display="none" fill="#363C52" points="1918.795,601.628 -2,795.208 -2,262.736 1918.795,449.472 "/>
<g>
	<path fill="#438FCD" d="M209.376,114.265c-0.622-1.431-1.396-2.641-2.457-2.536c-3.716,0.366-3.703-2.042-3.963-4.59
		c-0.179-1.749-0.79-3.454-1.231-5.173c-0.3-1.165-0.911-2.347,0.739-3.691c2.667,2.924,6.006,5.113,9.322,7.347
		c0.855,0.578-0.176,1.662-0.078,2.51c0.148,1.271-0.48,2.661,0.819,4.178c15.776-8.629,32.09-16.266,49.083-22.211
		c0.082-1.436-0.387-2.664-1.494-2.896c-3.063-0.642-2.665-2.5-2.186-4.741c0.416-1.938,0.457-3.959,0.629-5.947
		c0.104-1.202-0.055-2.498,1.352-3.113c1.703,0.172,1.447,1.711,2.008,2.703c0.76,1.347,1.578,2.713,2.629,3.831
		c1.951,2.077,3.163,4.111,1.131,6.823c-0.366,0.489-0.396,1.231-0.566,1.811c0.832,0.666,1.59,0.319,2.322,0.129
		c13.59-3.528,27.458-5.279,41.424-6.311c2.819-0.208,3.863-1.237,4.273-4.148c1.037-7.343,2.592-14.614,3.928-21.915
		c0.256-1.404,0.792-1.553,2.369-1.67c1.91-0.142,2.029,0.54,2.301,1.794c1.66,7.693,3.207,15.411,4.142,23.229
		c0.253,2.116,1.534,2.417,3.185,2.569c9.619,0.885,19.25,1.706,28.756,3.503c5.195,0.983,10.35,2.201,15.49,3.307
		c0.17-0.475,0.357-0.742,0.291-0.847c-2.398-3.768-1.207-6.841,1.719-9.694c1.031-1.004,1.697-2.311,1.986-3.784
		c0.131-0.668,0.58-1.269,1.34-1.292c0.989-0.029,1.371,0.774,1.428,1.54c0.246,3.32,0.382,6.642,1.21,9.9
		c0.331,1.306-0.828,1.693-1.796,1.959c-1.482,0.41-2.203,1.363-2.394,3.157c16.923,6.12,33.335,13.523,48.925,22.216
		c1.354-0.715,1.246-1.744,1.025-2.521c-0.977-3.439,0.818-5.279,3.615-6.553c2.339-1.063,3.611-3.45,6.125-5.042
		c1.488,3.75-1.529,6.702-1.016,9.808c0.861,5.2-5.718,2.493-6.221,6.552c2.008,1.184,4.182,2.463,6.352,3.748
		c12.049,7.137,23.957,14.51,34.696,23.546c9.292,7.821,17.528,16.666,24.397,26.745c4.129,6.056,8.479,11.96,12.609,18.016
		c1.524,2.236,3.056,2.213,3.654-0.193c0.98-3.94,3.557-4.704,6.984-4.765c1.531-0.027,3.076-0.319,4.459-1.181
		c0.725-0.451,1.653-0.969,2.34,0.077c0.504,0.768,0.135,1.546-0.406,2.127c-2.119,2.285-4.169,4.612-5.717,7.345
		c-0.616,1.093-1.594,1.146-2.572,0.536c-1.978-1.233-3.563-0.429-5.365,0.989c4.429,9.183,8.078,18.698,11.512,28.285
		c2.395,6.68,4.287,13.541,6.38,20.328c0.991,3.215,2.421,3.766,4.317,1.087c2.021-2.855,4.217-3.224,7.229-2.322
		c2.327,0.697,4.785,0.327,6.978,0.149c0.716,1.14,0.508,1.917-0.19,2.381c-2.865,1.9-5.861,3.598-8.42,5.946
		c-0.814,0.75-1.707,0.254-2.344-0.447c-1.67-1.844-3.543-1.328-5.896-0.493c4.355,16.044,6.598,32.342,5.773,49.118
		c9.178,1.662,18.109,3.219,27.008,4.938c1.822,0.353,4.92-0.117,4.973,2.231c0.055,2.457-3.064,2.015-4.855,2.31
		c-7.846,1.289-15.533,3.4-23.461,4.264c-2.428,0.265-4.268,1.32-4.457,4.57c-0.811,13.765-2.813,27.375-6.254,40.752
		c-0.127,0.496-0.016,1.053-0.016,2.311c4.995-4.359,8.156-0.713,11.453,2.002c1.246,1.025,3.468,0.451,4.018,2.521
		c-0.543,1.523-1.848,1.398-3.05,1.477c-1.552,0.102-3.132,0.047-4.649,0.328c-2.656,0.496-5.461,1.887-6.443-2.354
		c-0.176-0.75-1.342-1.057-2.471-1.104c-6.152,16.986-13.566,33.398-22.235,48.926c0.646,1.141,1.39,1.248,1.99,1.057
		c3.859-1.236,5.917,0.863,7.339,3.969c1.021,2.229,3.532,3.248,4.488,5.404c-0.984,1.357-2.055,1.066-3.154,0.74
		c-1.385-0.412-2.762-0.873-4.174-1.152c-2.836-0.561-6.545,0.191-6.185-4.701c0.05-0.678-0.948-1.434-1.55-2.275
		c-2.436,2.137-3.35,4.533-4.635,6.664c-9.311,15.41-18.705,30.732-31.588,43.584c-10.855,10.828-23.67,19.055-36.051,27.874
		c-0.915,0.65-2.543,0.842-2.301,2.465c0.213,1.438,1.613,1.908,2.727,2.145c2.605,0.557,3.479,1.99,3.531,4.596
		c0.045,2.283,0.293,4.664,1.612,6.729c0.36,0.563,0.522,1.301-0.108,1.818c-0.721,0.596-1.527,0.357-2.127-0.18
		c-2.4-2.15-4.791-4.295-7.611-5.914c-1.121-0.641-0.953-1.676-0.389-2.613c1.201-2.012,0.318-3.563-1.072-5.229
		c-9.328,4.514-18.977,8.174-28.68,11.664c-6.574,2.363-13.338,4.197-20.021,6.248c-3.045,0.938-3.661,2.465-1.109,4.111
		c3.348,2.16,3.297,4.748,2.364,7.838c-0.68,2.248,0.247,4.58-0.282,6.715c-1.235,0.607-1.969,0.074-2.441-0.719
		c-1.652-2.77-3.328-5.512-5.541-7.889c-0.746-0.801-0.539-1.705,0.197-2.365c1.937-1.74,1.557-3.662,0.645-5.916
		c-7.808,1.518-15.371,3.725-23.221,4.553c-6.086,0.643-12.146,1.371-18.268,1.119c-2.436-0.1-3.512,0.646-3.839,3.23
		c-1.138,9.02-2.759,17.965-4.685,26.852c-0.302,1.389-0.789,1.561-2.377,1.672c-1.904,0.137-2.025-0.537-2.303-1.793
		c-1.988-8.99-3.52-18.057-4.791-27.174c-0.213-1.543-0.492-2.781-2.523-2.74c-14.428,0.305-28.508-2.113-42.568-5.84
		c-0.977,2.193-1.539,4.076,0.375,5.875c0.691,0.652,1.199,1.535,0.453,2.346c-2.354,2.555-4.06,5.545-5.945,8.42
		c-0.386,0.59-1.045,0.774-2.259,0.477c0.438-3.84-0.4-7.665-0.898-11.532c-0.173-1.354,1.767-1.457,2.552-2.379
		c0.856-1.008,2.146-1.775,1.914-3.305c-0.252-1.648-1.863-1.357-2.933-1.662c-16.159-4.572-31.912-10.248-47.164-17.291
		c-0.38-0.174-0.804-0.26-1.235-0.395c-1.307,1.654-2.106,3.238-0.883,5.221c0.717,1.158,0.391,2.084-0.811,2.762
		c-2.537,1.428-4.714,3.318-6.806,5.322c-0.653,0.625-1.466,1.188-2.384,0.619c-1.064-0.66-0.537-1.609-0.088-2.332
		c0.734-1.184,1.029-2.482,1.11-3.801c0.224-3.596,0.606-6.824,5.134-7.797c1.939-0.418,2.132-1.973,0.182-3.318
		c-6.032-4.162-11.998-8.422-18.007-12.622c-14.923-10.422-27.477-23.125-37.358-38.461c-5.053-7.84-10.543-15.4-14.877-23.693
		c-0.654-1.254-1.504-2.404-2.246-3.578c-1.613,0.656-2.787,1.504-2.668,2.979c0.217,2.65-1.198,3.086-3.383,3.301
		c-2.189,0.219-4.336,0.893-6.49,1.412c-1.182,0.287-2.369,0.83-3.465-0.957c2.807-2.488,5.117-5.512,6.975-8.881
		c0.459-0.832,1.3-0.512,2.092-0.357c1.512,0.295,3.043,0.303,5.158-0.27c-8.781-16.115-16.458-32.404-22.416-49.436
		c-1.502-0.189-2.717,0.377-2.991,1.637c-0.575,2.656-2.111,2.672-4.198,2.051c-2.258-0.672-4.611-0.625-6.941-0.715
		c-1.002-0.041-2.209-0.064-2.471-1.242c-0.293-1.314,0.878-1.59,1.86-1.838c2.028-0.508,3.536-1.912,4.995-3.217
		c1.895-1.693,3.588-2.746,5.959-0.914c0.568,0.436,1.443,0.477,2.55,0.813c0.011-3.316-1.099-6.191-1.747-9.131
		c-2.451-11.082-3.912-22.313-4.55-33.624c-0.192-3.414-1.837-4.158-4.616-4.608c-7.987-1.295-15.949-2.747-23.918-4.149
		c-0.764-0.134-1.508-0.383-2.27-0.531c-1.028-0.202-2.145-0.51-2.138-1.704c0.007-1.195,1.133-1.491,2.161-1.684
		c5.883-1.103,11.764-2.225,17.65-3.315c3.375-0.626,6.757-1.223,10.143-1.797c1.332-0.225,2.205-0.6,2.137-2.293
		c-0.633-15.67,1.57-31.01,5.49-46.144c0.078-0.305,0.045-0.637,0.075-1.124c-2.046-0.882-3.952-1.35-5.712,0.596
		c-0.544,0.601-1.388,1.098-2.065,0.476c-2.719-2.492-6.001-4.172-8.905-6.386c-0.441-0.336-0.508-0.962,0.015-1.977
		c3.604,0.428,7.354-0.221,11.116-0.885c1.504-0.265,1.557,1.657,2.444,2.431c1.077,0.936,1.895,2.402,3.563,2.061
		c1.551-0.316,1.279-1.937,1.586-3.022c4.655-16.477,10.499-32.515,17.751-48.142c-1.688-1.514-3.343-2.243-5.427-0.984
		c-1.025,0.619-1.935,0.389-2.537-0.675c-1.493-2.631-3.435-4.904-5.519-7.075c-0.635-0.664-1.129-1.542-0.481-2.396
		c0.716-0.942,1.648-0.389,2.383,0.067c1.285,0.795,2.717,1.018,4.143,1.112c3.391,0.221,6.395,0.566,7.257,4.885
		c0.42,2.103,1.989,2.43,3.474,0.272c4.212-6.134,8.526-12.197,12.809-18.282c10.277-14.6,22.734-26.945,37.751-36.683
		c8.105-5.257,15.962-10.906,24.54-15.409C207.228,115.758,208.198,115.023,209.376,114.265z M327.917,91.519
		c2.124,12.616,4.164,24.646,6.162,36.684c0.271,1.625,1.19,2.118,2.722,2.284c13.196,1.433,25.936,4.692,38.463,9.101
		c25.45,8.96,48.562,21.003,67.911,40.784c16.266,16.627,27.191,35.986,35.395,56.967c5.817,14.885,10,30.572,11.861,46.646
		c0.322,2.782,1.068,4.288,4.303,4.546c4.508,0.362,8.947,1.513,13.424,2.272c6.197,1.051,12.399,2.052,18.898,3.124
		c0.732-15.73-1.807-30.575-6.141-45.425c-1.561,0.432-2.834,0.759-4.09,1.138c-6.27,1.897-12.527,3.837-18.811,5.687
		c-1.092,0.322-2.694,1.023-3.215-0.509c-0.559-1.642,1.174-1.832,2.275-2.189c6.758-2.193,13.502-4.437,20.305-6.478
		c2.275-0.682,2.559-1.6,1.918-3.818c-3.354-11.647-7.586-22.973-12.17-34.173c-1.574-3.85-3.449-7.579-5.352-11.719
		c-3.285,2.282-6.065,4.276-8.911,6.175c-3.692,2.465-7.413,4.891-11.173,7.25c-0.873,0.547-2.113,1.374-2.895-0.012
		c-0.652-1.152,0.48-1.758,1.293-2.33c1.271-0.894,2.549-1.777,3.826-2.661c5.27-3.645,10.542-7.288,15.641-10.813
		c-7.411-16.063-19.207-28.184-31.222-40.378c-1.591,1.512-2.931,2.824-4.315,4.088c-0.895,0.818-1.992,1.218-2.992,0.333
		c-1.202-1.062-0.721-2.332,0.232-3.199c1.394-1.262,2.982-2.306,4.381-3.362c-4.48-5.708-31.41-23.484-42.537-28.41
		c-1.805,3.236-3.596,6.534-5.471,9.783c-2.109,3.653-4.252,7.287-6.472,10.873c-0.594,0.958-1.263,2.558-2.714,1.806
		c-1.618-0.84-0.4-2.122,0.144-3.118c1.276-2.337,2.656-4.617,3.944-6.949c2.605-4.718,5.176-9.453,7.867-14.379
		c-14.934-8.651-30.229-15.467-46.397-21.414c-0.831,4.533-1.513,8.567-2.321,12.577c-0.881,4.349-1.844,8.683-2.861,13.001
		c-0.215,0.91-0.613,2.131-1.99,1.65c-1.055-0.367-0.924-1.354-0.741-2.274c0.298-1.523,0.547-3.056,0.831-4.582
		c1.314-7.062,2.635-14.123,4.01-21.486C356.79,94.942,342.751,92.595,327.917,91.519z M111.71,293.619
		c1.231-0.057,2.019-0.013,2.778-0.139c10.38-1.723,20.751-3.5,31.14-5.18c1.835-0.296,2.291-1.374,2.477-2.944
		c1.552-13.164,5.352-25.809,8.958-38.496c1.121-3.945,1.967-7.993,3.706-11.735c9.324-20.061,18.316-40.356,35.842-55.051
		c1.26-1.057,0.587-3.062,2.131-3.501c2.555-0.727,4.027-2.708,5.686-4.45c5.49-5.768,11.815-10.458,18.717-14.329
		c24.505-13.749,50.27-23.953,78.41-27.224c2.211-0.257,3.025-1.183,3.335-3.245c0.79-5.269,1.75-10.51,2.628-15.765
		c1.09-6.521,2.162-13.044,3.319-20.027c-14.81,1.055-28.917,3.405-42.974,7.089c1.629,8.841,3.174,17.23,4.725,25.619
		c0.199,1.082,0.704,2.429-0.843,2.742c-1.503,0.304-1.722-1.209-1.952-2.204c-0.975-4.215-1.836-8.457-2.729-12.69
		c-0.854-4.055-1.044-8.274-2.692-12.287c-15.979,6.058-31.291,12.729-46.061,21.396c3.466,6.168,6.775,12.047,10.072,17.933
		c0.867,1.548,1.722,3.104,2.521,4.688c0.324,0.641,0.231,1.337-0.418,1.766c-0.679,0.448-1.295,0.143-1.754-0.401
		c-0.568-0.676-1.145-1.368-1.585-2.128c-3.169-5.474-6.295-10.974-9.462-16.45c-0.699-1.209-1.15-2.634-2.729-3.48
		c-14.32,8.252-28.573,16.691-42.267,27.836c2.045,1.66,3.584,2.772,4.949,4.067c0.844,0.803,1.229,1.962,0.229,2.958
		c-0.969,0.965-2.07,0.667-2.983-0.138c-1.474-1.298-2.877-2.677-4.433-4.137c-12.146,12.226-23.907,24.378-31.228,40.347
		c6.399,4.426,12.87,8.896,19.333,13.38c0.883,0.613,2.227,1.25,1.342,2.549c-0.843,1.237-2.074,0.352-2.955-0.202
		c-3.665-2.302-7.283-4.68-10.896-7.062c-2.936-1.934-5.602-4.285-9.186-6.028c-7.364,15.754-13.59,31.661-18.006,48.489
		c1.281,0.443,2.309,0.817,3.348,1.152c6.55,2.113,13.103,4.215,19.652,6.327c1.045,0.337,2.548,0.613,2.195,1.993
		c-0.425,1.664-2.02,1.013-3.11,0.712c-4.28-1.179-8.528-2.478-12.79-3.721c-3.369-0.982-6.592-2.506-10.336-2.973
		C113.558,263.375,111.001,278.124,111.71,293.619z M519.332,353.543c2.502-7.355,3.444-14.746,4.823-22.015
		c1.055-5.551,1.496-11.222,2.146-16.846c0.146-1.284,0.254-3.361-1.666-2.731c-4.041,1.322-8.238,1.265-12.32,2.071
		c-5.683,1.12-11.391,2.183-17.133,2.89c-2.311,0.285-3.304,0.974-3.639,3.28c-0.748,5.158-1.162,10.361-2.383,15.465
		c-4.095,17.132-10.032,33.528-17.902,49.333c-7.109,14.285-15.465,27.508-27.801,37.791c-2.172,1.811-1.941,5.457-3.799,5.912
		c-3.008,0.738-4.8,2.539-6.777,4.381c-4.232,3.953-8.707,7.537-13.691,10.547c-23.559,14.227-49.016,23.275-76.028,28.137
		c-8.333,1.5-8.37,1.459-9.801,9.821c-1.586,9.266-3.114,18.543-4.662,27.783c6.778,1.801,34.952-2.99,40.783-6.221
		c-0.313-1.137-0.608-2.313-0.961-3.475c-1.872-6.16-3.798-12.305-5.606-18.482c-0.371-1.268-1.414-3.178,0.471-3.758
		c1.704-0.523,1.819,1.537,2.205,2.721c0.965,2.956,1.78,5.956,2.749,8.911c1.475,4.488,3.028,8.951,4.594,13.555
		c16.956-4.621,32.915-10.658,48.717-18.229c-2.319-3.322-4.323-6.11-6.237-8.958c-2.352-3.5-4.67-7.025-6.912-10.596
		c-0.603-0.963-1.73-2.285-0.438-3.246c1.457-1.084,2.074,0.58,2.73,1.506c1.535,2.178,2.975,4.42,4.501,6.602
		c2.972,4.244,5.973,8.465,8.917,12.633c11.093-5.25,35.813-24.883,40.216-32.116c-1.233-1.045-2.643-2.137-3.925-3.361
		c-0.941-0.9-1.502-2.104-0.447-3.234c1.092-1.174,2.217-0.49,3.23,0.314c1.455,1.152,2.412,2.879,4.132,3.709
		c4.952-4.041,23.57-32.371,27.503-41.936c-3.237-1.799-6.545-3.574-9.793-5.455c-3.839-2.227-7.647-4.51-11.415-6.855
		c-0.774-0.482-1.91-1.172-1.218-2.371c0.692-1.205,1.709-0.574,2.607-0.102c0.588,0.309,1.189,0.598,1.77,0.924
		c6.563,3.701,13.125,7.404,20.011,11.293c8.663-14.814,15.407-30.176,21.282-45.818c-0.988-1.209-2.211-1.111-3.242-1.326
		c-6.953-1.439-13.932-2.754-20.886-4.189c-1.21-0.248-3.155-0.303-2.899-2.039c0.298-2.02,2.103-1.014,3.279-0.801
		C502.597,350.43,510.766,351.959,519.332,353.543z M217.405,484.567c15.744,7.355,31.646,13.596,48.363,17.971
		c0.361-0.846,0.666-1.432,0.865-2.051c2.217-6.867,4.408-13.738,6.629-20.604c0.361-1.119,0.557-2.9,2.088-2.494
		c1.805,0.482,0.947,2.23,0.622,3.415c-1.146,4.172-2.422,8.311-3.63,12.469c-0.98,3.369-2.512,6.59-2.975,10.365
		c13.363,3.729,26.687,6.48,40.792,6.076c-1.917-11.338-3.846-22.15-5.509-33c-0.404-2.646-1.379-3.824-4.041-4.117
		c-12.083-1.324-23.516-5.461-35.256-8.279c-13.231-3.17-24.909-9.949-36.977-15.799c-8.84-4.287-16.963-9.691-23.875-16.773
		c-1.385-1.418-2.728-2.906-5.048-2.756c-0.931,0.061-1.927-0.502-1.47-1.645c0.775-1.932-0.734-2.58-1.728-3.494
		c-8.027-7.398-15.599-15.166-21.093-24.742c-10.94-19.066-19.733-38.977-24.793-60.475c-1.433-6.084-2.272-12.219-3.136-18.369
		c-0.282-2.01-0.842-3.087-3.171-3.366c-4.611-0.55-9.162-1.595-13.748-2.372c-5.848-0.994-11.708-1.922-17.572-2.88
		c-0.807,6.743,4.348,36.872,7.098,41.819c8.338-1.539,16.728-3.082,25.115-4.635c1.086-0.199,2.433-0.691,2.723,0.867
		c0.279,1.498-1.23,1.707-2.229,1.939c-4.215,0.971-8.457,1.828-12.69,2.725c-4.052,0.857-8.276,1.023-12.158,2.67
		c3.217,9.93,16.458,39.93,21.646,45.885c5.822-3.273,11.703-6.584,17.589-9.885c1.451-0.814,2.907-1.621,4.38-2.396
		c0.741-0.393,1.538-0.492,2.063,0.32c0.558,0.859-0.055,1.471-0.657,1.977c-0.593,0.498-1.221,0.971-1.888,1.355
		c-5.479,3.162-10.979,6.287-16.451,9.459c-1.207,0.697-2.643,1.137-3.445,2.711c8.217,14.357,16.688,28.584,27.686,42.111
		c1.714-1.975,2.881-3.465,4.206-4.795c0.825-0.832,1.974-1.217,2.96-0.207c0.953,0.973,0.648,2.074-0.156,2.986
		c-1.301,1.471-2.676,2.877-4.127,4.422c12.23,12.15,24.385,23.908,40.338,31.221c4.371-6.313,8.775-12.696,13.211-19.057
		c0.65-0.934,1.256-2.598,2.72-1.59c1.351,0.928,0.235,2.271-0.368,3.232c-2.239,3.57-4.574,7.084-6.896,10.604
		C221.478,478.319,219.112,480.978,217.405,484.567z M229.04,382.735c-1.555-1.693-3.026-3.061-4.227-4.633
		c-11.188-14.658-19.387-30.74-22.936-48.97c-0.352-1.804-0.969-2.535-2.887-2.849c-12.564-2.06-25.084-4.391-37.652-6.417
		c-3.518-0.564-7.018-1.818-10.953-1.374c0.777,5.239,1.242,10.223,2.288,15.081c4.231,19.659,11.533,38.198,20.993,55.899
		c3.191,5.971,6.629,11.814,10.724,17.229c4.612,6.098,10.271,11.184,15.913,16.797C210.013,409.725,219.464,396.317,229.04,382.735
		z M438.688,423.78c29.929-29.184,43.272-65.445,50.092-105.287c-3.495-0.282-6.043,0.546-8.603,0.971
		c-13.416,2.227-26.805,4.622-40.223,6.841c-1.998,0.332-2.762,1.157-3.107,3.112c-2.254,12.733-7.432,24.382-13.857,35.464
		c-3.703,6.387-7.887,12.518-13.304,17.777C419.31,396.303,428.821,409.79,438.688,423.78z M412.261,219.089
		c1.451,1.829,2.939,3.353,4.025,5.124c10.242,16.705,18.848,34.175,24.346,53.052c0.486,1.67,1.227,2.217,2.898,2.492
		c11.251,1.852,22.465,3.933,33.722,5.744c3.414,0.549,6.811,1.627,10.606,1.424c-0.199-1.429-0.372-2.509-0.5-3.594
		c-1.474-12.506-5.313-24.454-8.746-36.481c-5.041-17.674-13.919-33.563-23.908-48.81c-4.164-6.357-10.051-11.34-15.714-16.866
		C429.909,194.055,421.102,206.549,412.261,219.089z M199.782,181.156c-5.684,5.605-11.548,10.704-15.895,17.084
		c-14.854,21.808-24.515,45.862-29.973,71.614c-1.182,5.578-2.494,11.174-2.834,16.824c1.142,0.553,2.012,0.305,2.869,0.159
		c12.764-2.176,25.504-4.5,38.303-6.458c3.834-0.587,5.469-2.008,6.742-5.919c6.411-19.684,15.076-38.341,27.34-55.633
		C217.707,206.586,208.899,194.09,199.782,181.156z M335.371,469.952c1.655-0.209,2.726-0.354,3.799-0.475
		c11.427-1.287,22.235-5.172,33.296-7.984c15.656-3.98,29.533-12.033,43.6-19.613c6.998-3.77,12.816-8.986,18.354-14.641
		c-0.344-0.455-0.492-0.77-0.738-0.955c-12.169-9.125-24.361-18.219-36.502-27.381c-1.373-1.035-2.283-0.613-3.523,0.164
		c-12.922,8.102-26.404,15.266-40.863,20.02c-7.418,2.438-10.693,6.01-11.495,13.826
		C340.044,445.131,337.479,457.213,335.371,469.952z M303.257,469.67c-0.192-1.482-0.309-2.689-0.506-3.881
		c-2.15-12.916-4.463-25.807-6.371-38.758c-0.505-3.42-2.051-4.863-5.093-5.885c-16.17-5.428-31.365-12.953-45.845-21.92
		c-1.861-1.154-2.983-0.994-4.631,0.252c-11.331,8.58-22.743,17.047-34.107,25.58c-0.832,0.625-2.031,0.994-2.16,2.289
		C225.195,450.165,276.62,467.362,303.257,469.67z M435.356,177.924c-18.355-22.557-78.611-44.444-99.971-43.711
		c-0.043,0.214-0.148,0.438-0.116,0.639c2.425,14.671,4.894,29.336,7.259,44.017c0.291,1.811,1.348,1.893,2.745,2.132
		c8.017,1.374,15.66,3.865,23.159,7.079c10.598,4.542,20.148,10.689,29.383,17.875C410.335,196.604,422.757,187.33,435.356,177.924z
		 M303.654,133.707c-5.728,0.779-10.896,1.217-16.001,2.385c-8.564,1.957-16.943,4.46-25.225,7.369
		c-16.943,5.95-33.015,13.643-47.756,23.948c-4.156,2.904-7.692,6.564-11.367,10.428c12.76,9.525,25.188,18.8,37.568,28.043
		c3.52-2.515,6.704-4.919,10.014-7.136c13.053-8.742,27.124-15.103,42.707-17.713c1.984-0.333,2.479-1.13,2.756-2.899
		c1.174-7.455,2.523-14.882,3.755-22.329C301.294,148.606,302.421,141.398,303.654,133.707z M349.241,300.851
		c65.633,0,131.121,0,196.611,0c-12.832-2.567-25.685-4.833-38.547-7.033c-40.398-6.909-80.801-13.792-121.199-20.688
		c-3.719-0.635-7.437-1.435-11.146,0.02c-10.166,3.981-18.619,11.064-28.674,15.522
		C347.731,292.753,348.804,296.684,349.241,300.851z M96.594,304.757c0.036,0.281,0.071,0.566,0.107,0.847
		c17.355,2.929,34.716,5.822,52.065,8.793c34.41,5.89,68.814,11.825,103.222,17.735c3.927,0.674,7.854,1.666,11.808,0.127
		c10.18-3.966,18.621-11.082,28.705-15.526c-1.445-4.082-2.529-8.01-2.971-12.313C225.132,303.937,160.866,305.498,96.594,304.757z
		 M321.791,525.669c2.412-6.025,2.776-12.264,3.808-18.355c7.826-46.186,16.191-92.282,23.576-138.543
		c0.51-3.197,0.174-6.109-1.36-8.617c-5.29-8.645-8.917-18.133-13.946-26.903c-0.854-1.484-1.604-1.891-3.119-1.299
		c-2.17,0.848-4.32,1.849-6.577,2.338c-1.92,0.418-2.429,1.177-2.423,3.106c0.066,27.992,0.042,55.984,0.042,83.977
		C321.789,456.139,321.791,490.903,321.791,525.669z M316.483,270.348c0-62.799,0-125.484,0-188.167
		c-0.827,1.048-1.091,2.111-1.272,3.188c-8.499,50.332-16.959,100.671-25.552,150.988c-0.561,3.281-0.291,6.304,1.328,8.941
		c5.303,8.634,8.925,18.121,13.947,26.891c0.869,1.519,1.655,1.806,3.141,1.239C310.961,272.326,313.874,271.299,316.483,270.348z
		 M318.618,327.918c13.238,1.138,26.021-11.667,26.248-23.129c0.322-16.305-9.031-28.138-24.707-29.021
		c-12.468-0.702-25.619,12.037-26.279,24.704C293.065,316.102,302.999,327.622,318.618,327.918z M211.294,276.958
		c16.893-2.88,33.218-5.666,50.07-8.54c-9.09-12.852-17.83-25.214-26.965-38.129C223.208,244.401,216.304,259.918,211.294,276.958z
		 M404.091,230.687c-8.904,12.598-17.625,24.938-26.675,37.746c16.993,2.89,33.36,5.673,50.157,8.53
		C422.208,260.057,416.063,244.248,404.091,230.687z M213.356,328.802c4.848,16.198,12.282,30.101,24.262,41.776
		c7.965-11.275,15.689-22.211,23.744-33.613C245.161,334.21,229.501,331.548,213.356,328.802z M401.173,370.6
		c11.934-11.746,19.477-25.561,24.182-41.739c-16.162,2.739-31.788,5.387-47.697,8.085c0.484,0.869,0.658,1.272,0.906,1.626
		C385.979,349.084,393.401,359.594,401.173,370.6z M385.721,214.99c-8.579-9.777-34.356-23.424-40.757-21.461
		c2.666,15.062,5.338,30.157,8.093,45.724C364.236,230.949,374.968,222.976,385.721,214.99z M285.735,239.255
		c2.76-15.653,5.436-30.824,8.273-46.913c-16.002,4.442-29.447,11.464-41.121,22.522
		C263.841,222.997,274.573,230.967,285.735,239.255z M298.689,326.794c-26.681,27.542-53.403,55.128-80.595,83.198
		c2.135-0.391,3-1.463,4.02-2.223c19.84-14.799,39.617-29.684,59.512-44.406c5.25-3.885,9.109-8.738,11.781-14.582
		c2.309-5.051,4.729-10.033,7.432-14.887C303.15,329.742,303.081,329.703,298.689,326.794z M420.202,195.909
		c-0.14-0.173-0.278-0.345-0.418-0.517c-0.885,0.621-1.789,1.218-2.656,1.865c-20.006,14.952-39.967,29.965-60.04,44.828
		c-5.251,3.888-9.09,8.763-11.753,14.61c-2.303,5.054-4.74,10.028-7.436,14.885c-2.32,4.182-2.248,4.222,2.227,6.983
		C366.792,251.039,393.498,223.475,420.202,195.909z M213.899,195.826c-0.175,0.129-0.349,0.256-0.521,0.384
		c17.307,24.216,34.612,48.434,51.921,72.648c0.793,1.11,1.831,1.944,3.065,2.501c8.889,4.006,17.946,7.679,25.696,13.65
		c1.405-1.012,2.155-2.046,2.722-3.587C269.187,252.923,241.542,224.375,213.899,195.826z M424.916,409.602
		c0.138-0.174,0.273-0.346,0.411-0.518c-17.238-24.129-34.477-48.26-51.719-72.387c-0.719-1.006-1.584-1.874-2.72-2.401
		c-9.033-4.19-18.331-7.859-26.28-13.963c-1.268,1.214-2.203,2.131-2.539,3.715C369.651,352.532,397.284,381.065,424.916,409.602z
		 M293.251,408.627c-2.553-14.408-4.998-28.203-7.529-42.486c-10.626,7.902-20.863,15.516-31.414,23.361
		C266.235,398.286,278.823,404.311,293.251,408.627z M353.05,366.143c-2.529,14.32-4.971,28.154-7.504,42.488
		c14.466-4.377,27.15-10.373,38.922-19.16C373.866,381.6,363.658,374.022,353.05,366.143z M470.472,151.588
		c13.096,11.803,22.156,26.383,32.214,40.108c1.31-0.133,2.189-0.735,2.901-1.542c-7.508-16.376-19.607-29.116-32.066-41.807
		C472.493,149.438,471.668,150.316,470.472,151.588z M136.135,191.659c10.032-13.759,19.18-28.338,31.952-39.896
		c-0.833-1.52-1.686-2.467-3.068-3.25c-12.166,12.689-24.451,25.239-31.85,41.788C134.019,190.789,134.736,191.677,136.135,191.659z
		 M426.379,485.36c0.256,1.309,0.666,2.387,1.554,2.807c16.564-7.455,29.12-19.657,41.723-31.903
		c-1.063-1.178-1.77-2.326-3.232-2.736c-6.344,5.703-12.162,11.986-19.236,16.873C440.161,475.252,433.311,480.36,426.379,485.36z
		 M169.038,456.151c12.734,12.436,25.434,24.641,41.873,32.081c0.718-0.871,1.514-1.652,1.393-2.994
		c-13.82-10.008-28.329-19.213-40.053-32.086C171.021,454.303,170.142,455.124,169.038,456.151z M425.235,120.406
		c14.775,8.506,29.095,17.296,42.141,28.021c1.309-0.811,2.436-1.634,3.136-3.442c-13.528-10.5-27.962-19.657-42.896-27.981
		C426.423,117.878,425.845,118.924,425.235,120.406z M168.211,145.055c0.858,1.717,1.871,2.658,3.419,3.427
		c6.167-5.706,13.274-10.201,20.295-14.843c7.073-4.677,14.244-9.191,21.744-13.115c-0.803-1.626-1.309-2.732-2.57-3.517
		C196.216,125.399,181.728,134.482,168.211,145.055z M169.162,450.055c-10.858-13.137-19.598-27.604-28.161-42.266
		c-0.955,0.572-1.633,0.941-2.268,1.373c-0.354,0.24-0.639,0.58-1.117,1.029c8.528,14.994,17.527,29.598,28.382,43.262
		c1.022-0.977,1.598-1.48,2.118-2.037C168.485,451.024,168.78,450.561,169.162,450.055z M497.678,407.907
		c-8.523,14.756-17.294,29.084-28.024,42.117c0.858,1.297,1.635,2.475,3.529,3.123c10.354-13.594,19.633-27.945,27.902-42.92
		C500.171,409.071,499.162,408.446,497.678,407.907z M113.704,358.807c5.986,16.762,13.178,32.766,21.863,48.131
		c1.605-0.541,2.689-1.197,3.523-2.467c-8.664-14.871-15.425-30.656-21.602-46.504C116.095,357.698,115.209,358.174,113.704,358.807
		z M216.856,118.46c15.021-8.771,30.814-15.496,46.713-21.719c-0.008-1.497-0.197-2.545-1.242-3.619
		c-16.52,5.91-32.553,13.042-47.852,21.784C214.997,116.449,215.694,117.406,216.856,118.46z M424.569,115.042
		c-15.664-8.875-31.66-16.071-48.221-21.961c-0.883,1.26-1.241,2.26-1.041,3.721c15.998,6.151,31.791,13.076,46.844,21.728
		C422.993,117.315,423.616,116.415,424.569,115.042z M503.13,407.069c8.811-15.561,16.017-31.547,21.89-48.137
		c-1.331-0.803-2.306-1.244-3.753-0.934c-6.145,15.91-12.977,31.662-21.582,46.508C500.511,405.737,501.604,406.268,503.13,407.069z
		 M115.716,244.092c4.545-16.969,10.79-33.263,18.234-49.191c-0.623-0.45-1.035-0.815-1.508-1.068
		c-0.455-0.245-0.975-0.376-1.77-0.668c-7.439,16.361-13.729,32.939-18.176,50.124C113.44,244.014,114.256,244.256,115.716,244.092z
		 M374.656,509.015c17.377-4.678,34.036-10.752,50.132-18.27c-0.207-1.516-0.686-2.438-1.854-3.164
		c-15.773,7.404-32.099,13.58-49.043,18.172c0.055,0.771,0.025,1.209,0.131,1.611C374.155,507.874,374.396,508.354,374.656,509.015z
		 M526.297,243.155c-4.589-17.093-10.674-33.747-18.18-49.837c-1.526,0.168-2.431,0.677-3.216,1.881
		c3.975,7.683,6.789,15.97,10.221,24.002c3.467,8.115,5.047,16.881,8.377,25.237C524.575,244.004,525.513,244.129,526.297,243.155z
		 M264.933,506.04c-8.248-3.225-16.913-4.828-24.977-8.246c-8.12-3.439-16.444-6.385-24.402-10.379
		c-0.509,0.768-0.837,1.207-1.1,1.68c-0.204,0.371-0.328,0.785-0.645,1.566c16.252,7.586,32.896,13.689,50.229,18.314
		c0.244-0.48,0.497-0.844,0.611-1.24C264.796,507.224,264.831,506.681,264.933,506.04z M524.14,247.93
		c4.191,14.823,6.621,29.672,6.309,44.889c-0.033,1.605,0.75,2.197,2.363,1.893c0.109-0.421,0.297-0.841,0.316-1.268
		c0.691-15.225-1.375-30.123-5.288-44.808C527.21,246.269,525.907,247.168,524.14,247.93z M105.696,294.739
		c3.024,0.03,2.682-1.776,2.66-3.265c-0.186-13.179,1.713-26.082,5.012-38.814c0.406-1.565,1.188-3.106,0.923-4.794
		c-2.275-1.553-3.1-0.541-3.612,1.683c-1.695,7.348-3.367,14.687-4.254,22.198C105.526,279.364,105.452,286.974,105.696,294.739z
		 M328.063,515.728c14.635,0.611,28.865-1.809,42.871-5.754c0.031-2.273-0.385-3.318-2.701-2.693
		c-12.539,3.402-25.24,5.791-38.301,5.715C328.144,512.987,327.53,513.735,328.063,515.728z M310.667,515.728
		c0.795-2.629-0.677-2.787-2.408-2.727c-5.113,0.18-10.148-0.613-15.215-1.109c-8.283-0.811-16.236-3.203-24.425-4.961
		c-0.263,0.518-0.526,0.875-0.622,1.271c-0.125,0.516-0.117,1.064-0.187,1.828C281.927,513.845,296.085,516.372,310.667,515.728z
		 M267.343,95.573c13.996-3.683,27.975-6.448,42.275-7.294c1.496-0.089,2.252-0.713,1.84-2.434
		c-0.408-0.057-0.836-0.197-1.249-0.164c-13.902,1.125-27.723,2.792-41.361,5.84C266.15,92.125,265.75,93.13,267.343,95.573z
		 M327.27,85.684c-0.329,2.679,1.284,2.528,2.745,2.634c9.98,0.729,19.857,2.149,29.606,4.429c3.967,0.929,7.94,1.825,11.878,2.728
		c1.549-2.363,1.165-3.551-1.59-3.938c-2.74-0.384-5.44-1.051-8.152-1.617C350.446,87.56,338.978,86.545,327.27,85.684z
		 M116.269,354.012c-3.654-13.604-6.295-27.31-7.241-41.304c-0.109-1.619-0.909-2.064-2.515-1.995
		c0.783,14.978,2.869,29.71,6.327,44.139C114.212,355.206,115.118,354.936,116.269,354.012z M522.482,354.063
		c2.556,1.662,3.693,1.154,4.074-1.543c0.386-2.734,1.06-5.432,1.616-8.143c2.229-10.854,3.375-21.837,4.037-32.885
		c-1.74-0.616-2.393-0.039-2.464,1.584c-0.087,1.991-0.254,3.981-0.489,5.963C527.862,330.828,525.708,342.475,522.482,354.063z
		 M225.235,225.265c-3.816,5.874-7.268,11.839-10.196,18.132c5.303,2.256,5.296,2.252,7.979-2.113
		c0.983-1.602,1.967-3.208,3.012-4.77C229.76,230.943,229.771,230.95,225.235,225.265z M374.625,406.448
		c6.356-3.061,12.324-6.373,18.104-10.225c-5.619-4.563-5.611-4.551-11.006-0.934c-1.566,1.051-3.171,2.043-4.775,3.033
		C372.589,401.008,372.583,401.002,374.625,406.448z M414.124,372.971c3.088-4.506,6.492-8.42,8.301-13.414
		c-2.283-0.887-4.329-1.68-6.693-2.598c-2.307,4.029-5.396,7.449-8.246,11.117C409.507,370.194,411.527,371.676,414.124,372.971z
		 M374.319,202.354c4.154,2.428,7.529,5.434,11.117,8.27c2.098-2.136,3.834-4.059,4.744-6.705
		c-4.311-3.088-8.283-6.401-13.256-8.271C376.038,197.934,375.243,199.979,374.319,202.354z M248.536,204.089
		c1.258,2.512,2.679,4.689,4.997,6.501c3.427-3.082,7.068-5.758,10.888-8.365c-0.896-2.274-1.728-4.389-2.632-6.685
		C256.812,197.778,252.653,200.809,248.536,204.089z M231.284,367.909c-3.042-3.453-5.795-7.035-8.32-10.916
		c-2.307,0.902-4.421,1.732-6.723,2.631c2.211,4.982,5.271,9.125,8.516,13.262C227.292,371.655,229.445,370.198,231.284,367.909z
		 M410.804,233.388c1.688,2.683,3.398,5.357,5.063,8.06c2.555,4.148,3.045,4.282,7.866,1.857c-2.387-4.935-4.931-9.77-8.012-14.465
		C413.913,230.381,412.169,231.523,410.804,233.388z M243.187,276.732c11.771,8.406,24.158,15.819,36.428,23.414
		c2.338,1.448,4.948,0.96,7.549,0.23C272.079,293.197,257.62,284.997,243.187,276.732z M228.187,277.819
		c0.691,0.535,1.098,0.905,1.555,1.193c11.366,7.163,23.156,13.639,34.32,21.131c0.992,0.666,2.039,1.227,3.367,0.484
		c-0.248-0.315-0.395-0.64-0.646-0.803c-11.49-7.381-22.989-14.749-34.49-22.112C231.102,276.95,229.875,276.734,228.187,277.819z
		 M344.556,209.943c-0.43,0.323-0.66,0.417-0.766,0.588c-7.042,11.534-14.08,23.072-21.094,34.625
		c-0.587,0.967-1.08,2.035-0.186,3.754c7.53-11.955,14.782-23.464,22.027-34.979C345.299,212.723,345.311,211.472,344.556,209.943z
		 M294.318,377.625c0.306,0.189,0.492,0.375,0.569,0.336c0.188-0.092,0.365-0.264,0.479-0.445
		c6.893-11.006,13.811-21.992,20.641-33.037c1.502-2.428,0.949-5.146,0.477-7.839C309.663,350.663,302.272,364.303,294.318,377.625z
		 M294.134,395.186c0.449-0.34,0.676-0.436,0.785-0.605c7.227-11.43,13.625-23.363,21.127-34.625
		c0.623-0.936,1.125-2.021,0.184-3.758c-7.545,11.953-14.813,23.455-22.063,34.971C293.409,392.37,293.479,393.659,294.134,395.186z
		 M251.103,399.327c4.422,2.789,8.633,5.057,13.66,7.346c-0.465-2.588,2.242-4.732-0.031-6.498
		c-3.088-2.398-6.641-4.195-10.15-6.346C253.414,395.674,252.366,397.331,251.103,399.327z M411.422,327.306
		c-11.58-7.139-22.896-14.114-34.213-21.091c-0.944-0.583-1.906-0.754-3.538-0.084c11.664,7.424,22.863,14.555,34.069,21.677
		C408.907,328.55,410.048,328.38,411.422,327.306z M344.14,227.81c-1.609,0.512-1.824,1.426-2.249,2.101
		c-5.964,9.474-11.801,19.029-17.886,28.423c-1.99,3.075-2.486,6.166-1.703,9.71C328.909,254.462,336.186,241.263,344.14,227.81z
		 M354.985,306.158c13.969,6.752,27.389,14.47,40.892,22.034c-10.335-7.521-21.372-13.907-32.071-20.822
		C360.968,305.538,358.16,305.422,354.985,306.158z M431.833,260.552c-2.092,1.486-5.678,0.677-5.213,4.182
		c0.406,3.079,1.92,6.011,2.946,9.008c2.479-0.236,4.604-0.438,7.116-0.676C435.024,268.788,433.522,264.914,431.833,260.552z
		 M206.86,261.039c-1.738,3.951-3.332,7.796-4.546,12.09c2.392,0.201,4.545,0.381,6.603,0.554c0.261-0.275,0.484-0.407,0.55-0.594
		c0.62-1.775,1.222-3.557,1.817-5.341C212.979,262.663,212.684,262.182,206.86,261.039z M214.577,356.547
		c2.494-0.615,4.543-1.266,6.252-2.906c-1.83-3.313-3.576-6.473-5.339-9.662c-2.05,0.504-4.064,0.43-5.968,1.713
		C211.212,349.321,212.834,352.805,214.577,356.547z M429.37,345.471c-2.297-0.85-4.197-1.268-6.182-1.365
		c-1.785,3.271-3.513,6.439-5.348,9.805c2.184,1.117,3.969,2.385,6.426,2.494C425.938,352.825,427.562,349.344,429.37,345.471z
		 M373.8,193.833c-3.625-1.681-7.192-3.334-10.836-5.024c-1.127,2.096-1.226,4.063-1.58,6.04c3.283,1.798,6.449,3.531,9.697,5.309
		C372.571,198.22,373.505,196.305,373.8,193.833z M275.929,189.037c-2.963,0.628-5.374,2.578-8.191,3.445
		c-3.016,0.928-3.141,2.598-1.717,4.932c0.554,0.908,0.658,2.156,1.998,2.604c3.113-1.731,6.27-3.484,9.391-5.22
		C277.006,192.749,276.943,190.85,275.929,189.037z M316.847,420.928c-0.417,0.1-0.719,0.078-0.813,0.207
		c-4.779,6.664-9.064,13.65-13.283,20.674c-0.832,1.385-0.637,2.848,0.296,4.59c4.61-7.236,9.019-14.121,13.383-21.033
		C317.298,423.989,317.052,422.473,316.847,420.928z M177.327,286.179c0.408,0.52,0.551,0.835,0.795,0.992
		c6.716,4.327,13.435,8.648,20.17,12.942c1.543,0.984,3.221,1.169,5.119,0.579c-0.25-0.381-0.36-0.726-0.596-0.878
		c-6.975-4.535-13.962-9.054-20.952-13.567C180.526,285.384,179.13,285.604,177.327,286.179z M335.702,158.603
		c-4.643,7.33-8.981,14.139-13.272,20.979c-0.853,1.36-0.864,2.849-0.266,4.255c0.731,0.124,0.948-0.319,1.171-0.668
		c4.176-6.539,8.344-13.083,12.504-19.633C336.746,162.108,336.629,160.667,335.702,158.603z M196.531,283.167
		c6.332,5.323,25.741,17.449,28.61,17.542c-8.302-6.361-16.342-12.201-24.592-17.753
		C199.419,282.195,198.047,282.242,196.531,283.167z M339.021,178.259c-5.196,5.89-16.938,25.134-16.664,27.655
		c6-7.845,11.59-15.651,16.883-23.669C340.034,181.043,339.958,179.771,339.021,178.259z M425.021,259.784
		c2.021-0.83,3.721-1.527,5.557-2.28c-1.791-3.674-3.473-7.13-5.302-10.88c-1.788,1.079-3.829,0.668-5.36,2.009
		C421.608,252.334,423.259,255.936,425.021,259.784z M213.353,246.85c-1.754,3.681-3.428,7.198-5.15,10.812
		c2.172,0.777,3.901,1.395,5.653,2.022c1.743-3.889,3.388-7.552,5.114-11.408C216.907,247.752,215.226,247.325,213.353,246.85z
		 M269.019,402.301c-0.555,2.15-0.988,3.832-1.484,5.748c3.625,1.738,7.143,3.428,10.783,5.172c0.785-2.119,1.423-3.844,2.15-5.814
		C276.501,406.096,272.981,404.258,269.019,402.301z M358.345,407.614c0.737,1.906,1.401,3.621,2.178,5.629
		c3.687-1.801,7.195-3.516,10.766-5.258c-0.562-2.006-1.029-3.674-1.549-5.533C365.887,404.198,362.29,405.827,358.345,407.614z
		 M299.742,427.405c6.155-9.479,11.978-18.445,17.798-27.41c-1.035-0.395-1.405-0.342-1.57-0.129
		c-5.654,7.383-11.055,14.951-16.273,22.65C298.797,423.844,298.841,425.18,299.742,427.405z M462.288,318.66
		c-6.693-4.29-13.115-8.439-19.58-12.515c-1.354-0.853-2.894-0.583-5.063-0.231c7.046,5.125,13.886,9.377,20.831,13.46
		C459.56,320.01,460.849,319.76,462.288,318.66z M279.192,187.661c1.107,2.101,1.031,4.28,2.408,6.129
		c2.042-0.827,3.975-1.611,5.908-2.389c4.115-1.657,4.465-2.39,3.254-6.942C286.931,184.983,283.312,186.272,279.192,187.661z
		 M357.517,193.894c0.726-2.387,1.29-4.243,1.902-6.254c-3.907-1.349-7.568-2.752-11.814-3.149c0.232,2.201-1.217,4.654,1.393,5.964
		C351.63,191.778,354.469,192.686,357.517,193.894z M380.21,332.899c-14.589-8.969-30.615-16.728-33.586-16.323
		C358.569,325.005,374.5,332.859,380.21,332.899z M217.416,278.758c-0.185,0.353-0.37,0.707-0.556,1.061
		c6.078,5.394,31.485,21.022,34.828,20.881C239.883,293.142,228.649,285.95,217.416,278.758z M416.406,306.039
		c5.177,3.791,9.95,7.325,14.765,10.801c2.688,1.94,5.43,3.813,8.186,5.654c1.284,0.86,2.512,0.291,3.706-0.393
		C437.342,317.075,419.249,305.896,416.406,306.039z M343.389,199.148c-0.341-0.167-0.683-0.334-1.023-0.502
		c-5.022,5.491-20.175,30.304-20.066,33.814C329.601,220.928,336.495,210.038,343.389,199.148z M294.908,406.612
		c1.78,0.025,2.073-0.451,2.368-0.91c6.242-9.682,12.488-19.359,18.709-29.055c0.747-1.166,0.679-1.211,0.164-3.57
		C309.05,384.286,302.133,395.208,294.908,406.612z M274.362,301.647c0.195-0.367,0.391-0.734,0.585-1.102
		c-6.491-5.362-36.987-24.017-39.788-23.995C248.491,285.085,261.427,293.367,274.362,301.647z M316.929,349.442
		c-4.311,3.932-23.799,35.912-23.709,38.564C301.272,374.87,309.659,362.497,316.929,349.442z M422.019,326.386
		c0.203-0.325,0.406-0.651,0.609-0.976c-0.1-0.187-0.148-0.447-0.305-0.549c-9.467-6.181-18.939-12.354-28.421-18.511
		c-0.912-0.593-1.888-1.052-3.398-0.117C401.159,313.045,411.589,319.718,422.019,326.386z M291.153,411.256
		c-7.185-3.225-8.546-2.754-9.303,3.275c2.809,1.398,5.731,2.607,8.893,3.428C290.883,415.684,291.011,413.596,291.153,411.256z
		 M346.38,218.127c-0.358-0.221-0.715-0.441-1.075-0.661c-7.962,12.583-15.925,25.167-23.886,37.75
		c0.393,0.241,0.785,0.482,1.178,0.723C330.524,243.335,338.453,230.732,346.38,218.127z M367.442,305.054
		c-0.184,0.362-0.367,0.722-0.549,1.084c6.301,5.239,34.832,22.647,37.605,22.593C391.884,320.673,379.663,312.864,367.442,305.054z
		 M433.003,332.975c-6.402-0.604-7.455,0.327-8.326,7.307c1.824,0.566,3.672,1.14,5.867,1.823
		C431.327,338.959,432.841,336.181,433.003,332.975z M155.547,290.048c4.851,3.234,9.571,6.299,14.194,9.504
		c1.92,1.332,3.828,1.818,6.654,1.003c-5.904-3.78-11.361-7.29-16.838-10.768C158.286,288.979,157.032,289.556,155.547,290.048z
		 M329.729,155.813c5.215-5.288,5.613-7.025,3.047-12.083c-3.835,6.596-7.596,13.065-11.355,19.534
		c0.324,0.189,0.652,0.378,0.978,0.567c1.407-2.224,2.76-4.483,4.231-6.662c1.512-2.237,2.619-4.789,5.264-6.321
		C331.173,152.503,330.452,154.158,329.729,155.813z M349.658,417.372c2.796-0.803,5.144-1.635,7.284-2.877
		c-0.826-6.09-2.682-6.748-8.799-3.158C348.612,413.202,349.089,415.102,349.658,417.372z M316.667,447.893
		c-3.63,5.684-6.912,10.785-10.147,15.92c-0.817,1.297-0.41,2.59,0.176,4.215c3.04-4.625,5.771-8.924,8.663-13.111
		C316.696,452.975,317.391,451.016,316.667,447.893z M321.511,155.974c0.33,0.167,0.664,0.334,0.996,0.501
		c3.254-5.066,6.533-10.118,9.742-15.212c0.748-1.189,0.377-2.465-0.339-4.642C328.708,143.842,322.586,148.543,321.511,155.974z
		 M182.613,301.386c0.188-0.334,0.376-0.668,0.564-1.001c-5.263-3.41-10.523-6.82-15.785-10.229
		c2.399-0.547,3.843,1.326,6.052,1.306c-3.174-3.686-6.786-4.545-11.498-2.397C169.012,293.277,175.813,297.333,182.613,301.386z
		 M203.953,281.739c8.026,6.303,16.335,12.215,24.345,18.53c1.316,1.038,2.711,0.801,4.898,0.405
		C223.116,293.931,213.235,288.318,203.953,281.739z M317.331,441.899c-0.316-0.209-0.636-0.416-0.953-0.621
		c-3.316,4.625-5.834,9.836-10.081,13.863c0.69-1.664,1.379-3.328,2.306-5.566c-4.672,4.633-5.131,6.836-2.677,11.658
		C309.771,454.717,313.55,448.309,317.331,441.899z M290.29,288.299c-14.818-10.148-25.417-15.46-31.408-15.714
		C270.103,277.561,279.729,283.802,290.29,288.299z M279.798,241.295c0.847,7.137,0.166,14.079,2.723,20.585
		c0.341-5.958,0.385-11.866,0.311-17.771C282.813,242.606,281.657,241.908,279.798,241.295z M357.903,345.856
		c0,5.492-0.021,10.986,0.012,16.48c0.009,1.793,1.016,2.742,3.206,3.117C360.073,358.7,361.004,351.985,357.903,345.856z
		 M484.641,315.114c-6.954-2.86-11.148-9.272-18.653-9.116c4.072,3.105,8.388,5.76,12.605,8.563
		C480.182,315.618,481.72,316.111,484.641,315.114z M206.229,334.611c0.369,2.815,1.137,5.146,2.279,7.452
		c2.03-0.661,3.884-1.263,5.944-1.934c-0.645-2.275-1.399-4.283-2.575-6.237C210.069,334.123,208.344,334.341,206.229,334.611z
		 M459.218,305.292c-0.168,0.328-0.336,0.654-0.503,0.981c4.454,3.383,9.685,5.707,14.38,9.799c-2.076,0.134-2.973-0.82-4.054-1.279
		c-1.038-0.443-2.033-0.978-3.048-1.473c4.873,4.768,6.361,5.105,11.393,2.713C471.227,312.392,465.222,308.842,459.218,305.292z
		 M359.371,263.91c5.585-0.337,11.116-0.18,16.616-0.584c1.758-0.13,2.672-1.049,2.944-3.205
		C372.185,261.39,365.405,260.616,359.371,263.91z M259.278,345.899c6.649-1.265,13.475-0.338,19.5-3.804
		c-5.552,0.397-11.087,0.212-16.59,0.647C260.533,342.874,259.653,343.847,259.278,345.899z M408.312,305.953
		c9.684,6.027,18.63,11.718,27.446,17.61c-7.339-5.917-14.899-11.486-22.436-17.089C412.04,305.52,410.681,305.526,408.312,305.953z
		 M289.032,296.62c-11.021-5.389-21.947-10.971-32.946-16.405C261.588,284.495,285.584,296.634,289.032,296.62z M148.978,291.606
		c5.936,2.957,10.711,7.695,17.299,9.084c-4.454-3.535-9.191-6.574-13.92-9.626C151.249,290.349,150.268,290.6,148.978,291.606z
		 M193.938,301.011c-3.468-4.109-19.934-13.926-22.363-13.395C179.205,292.144,186.103,297.363,193.938,301.011z M316.587,390.94
		c-5.004,7.842-9.645,15.115-14.286,22.387c5.04-5.746,9.585-11.822,14.099-17.922C317.243,394.266,317.267,392.969,316.587,390.94z
		 M316.935,458.366c-5.152,4.424-9.979,13.58-8.646,16.146C311.091,468.948,315.452,464.444,316.935,458.366z M322.089,146.944
		c3.1-5.248,8.301-9.418,8.821-16.031C327.665,136.096,323.2,140.611,322.089,146.944z M321.97,174.85
		c4.91-6.713,9.487-13.624,13.02-21.155C330.187,160.472,325.177,167.127,321.97,174.85z M316.969,430.342
		c-4.22,3.83-13.214,19.045-12.83,21.762C308.5,444.567,313.602,437.967,316.969,430.342z M467.148,318.893
		c0.255-0.432,0.509-0.863,0.763-1.294c-6.655-4.091-13.049-8.619-19.93-12.335c-0.217,0.359-0.434,0.719-0.65,1.078
		C453.937,310.527,460.542,314.708,467.148,318.893z M381.513,324.231c-8.645-5.607-17.643-10.482-27.018-14.617
		c-0.154,0.296-0.307,0.594-0.461,0.889C363.194,315.079,372.353,319.655,381.513,324.231z M335.767,192.82
		c-0.154-0.149-0.308-0.298-0.462-0.447c-4.272,5.757-8.559,11.504-12.804,17.281c-0.807,1.098-0.758,2.333-0.313,4.038
		c0.645-0.799,1.016-1.182,1.3-1.623C327.588,205.658,331.676,199.237,335.767,192.82z M475.46,305.731
		c5.948,5.784,12.13,9.018,15.408,8.079C485.395,311.104,481.261,306.842,475.46,305.731z M342.277,194.104
		c-0.373-0.229-0.745-0.456-1.116-0.684c-4.719,7.619-9.434,15.239-14.15,22.859c0.236,0.144,0.473,0.289,0.709,0.434
		C332.261,208.986,337.931,201.949,342.277,194.104z M299.005,362.504c5.637-8.881,10.418-18.188,14.682-27.753
		c-0.32-0.162-0.641-0.32-0.959-0.479C308.152,343.683,303.577,353.094,299.005,362.504z M339.073,243.669
		c-5.496,8.54-10.155,17.683-14.376,27.041c0.325,0.162,0.649,0.322,0.976,0.483C330.14,262.019,334.605,252.844,339.073,243.669z
		 M296.275,410.948c0.446,0.236,0.892,0.473,1.337,0.707c4.499-7.303,9-14.607,13.502-21.916c-0.209-0.125-0.418-0.248-0.625-0.377
		C305.752,396.559,301.015,403.752,296.275,410.948z M189.333,283.823c-0.215,0.322-0.43,0.644-0.645,0.965
		c8.11,5.437,16.222,10.872,24.331,16.308c0.171-0.256,0.343-0.513,0.514-0.769C205.468,294.826,197.399,289.324,189.333,283.823z
		 M300.388,434.151c0.318,0.207,0.637,0.42,0.955,0.627c5.197-7.828,10.395-15.656,15.593-23.482c-0.24-0.16-0.481-0.32-0.724-0.479
		C310.938,418.594,305.662,426.37,300.388,434.151z M338.35,171.031c-0.336-0.216-0.671-0.432-1.007-0.648
		c-5.078,7.683-10.154,15.366-15.233,23.049c0.236,0.153,0.474,0.308,0.712,0.46C327.997,186.272,333.173,178.652,338.35,171.031z
		 M212.599,279.794c-0.242,0.399-0.484,0.798-0.727,1.197c7.402,4.867,14.828,9.694,22.866,13.531
		C227.359,289.613,219.979,284.703,212.599,279.794z M427.624,324.857c-6.342-4.934-13.108-9.181-20.246-12.822
		C414.111,316.336,420.204,321.677,427.624,324.857z M450.241,321.394c0.191-0.34,0.385-0.681,0.574-1.022
		c-7.432-4.963-14.867-9.928-22.303-14.892c-0.164,0.254-0.331,0.509-0.496,0.766C435.425,311.295,442.833,316.345,450.241,321.394z
		 M351.296,358.438c0.386-0.076,0.77-0.156,1.154-0.232c-0.73-6.555-1.465-13.109-2.195-19.662
		C349.994,345.243,349.687,351.942,351.296,358.438z M353.114,271.891c6.518-0.265,13.303,0.302,19.682-1.895
		c-0.05-0.327-0.096-0.655-0.145-0.982C366.138,269.973,359.627,270.931,353.114,271.891z M285.843,334.029
		c-6.704-0.889-18.915,0.906-20.309,3.026C272.227,336.059,278.722,335.091,285.843,334.029z M285.947,245.915
		c-0.328,0.027-0.657,0.054-0.985,0.081c0.743,6.807,0.187,13.748,2.687,20.378C287.081,259.555,286.515,252.735,285.947,245.915z
		 M290.528,267.825c0.209-6.041,0.805-12.257-0.999-18.188c-0.318,0.038-0.636,0.075-0.954,0.112
		C289.226,255.775,289.878,261.8,290.528,267.825z M354.88,361.061c0.288-0.023,0.575-0.051,0.862-0.072
		c-0.397-6.596-0.261-13.236-1.543-19.754c-0.298,0.025-0.595,0.052-0.892,0.077C353.833,347.895,354.356,354.479,354.88,361.061z
		 M374.928,266.427c-4.712-1.124-17.954,0.681-20.101,2.458C361.673,268.048,368.299,267.238,374.928,266.427z M129.69,294.542
		c3.586,2.529,6.861,5.546,11.363,6.107C137.425,298.249,134.371,294.769,129.69,294.542z M263.574,339.587
		c6.185,1.013,17.77-0.706,19.667-2.405C276.593,337.996,270.083,338.792,263.574,339.587z M327.69,111.063
		c-3.896,4.12-5.645,7.609-5.443,10.561C324.203,118.164,327.645,115.494,327.69,111.063z M316.61,483.636
		c-1.928,3.477-5.935,5.973-5.385,10.68C313.399,490.95,316.305,487.968,316.61,483.636z M500.507,306.004
		c3.107,1.773,5.395,5.241,9.636,4.663C507.096,308.773,504.534,305.87,500.507,306.004z M249.959,228.541
		c0.351-0.075,0.699-0.151,1.05-0.227c-1.074-3.528,0.527-7.639-3.11-10.61C248.585,221.317,249.272,224.929,249.959,228.541z
		 M392.214,229.548c0.09,0.358,0.179,0.715,0.268,1.073c3.371-1.031,7.36,0.406,10.02-3.46
		C399.071,227.957,395.644,228.752,392.214,229.548z M242.837,213.409c0.533,3.295-0.121,7.024,2.705,9.746
		C245.112,219.807,245.423,216.27,242.837,213.409z M406.503,221.976c-3.272,0.652-6.929,0.137-9.416,3.083
		C400.345,224.376,403.915,224.726,406.503,221.976z M390.53,379.459c0.219,3.412-1.022,7.166,2.102,9.9
		C392.34,385.965,392.147,382.545,390.53,379.459z M235.869,378.86c3.382-0.793,6.765-1.584,10.146-2.379
		c-0.083-0.318-0.166-0.639-0.249-0.959C242.36,376.225,238.495,375.192,235.869,378.86z M231.907,384.084
		c3.156-0.771,6.756-0.121,9.059-3.055C237.795,381.694,234.269,381.278,231.907,384.084z M398.116,393.385
		c-0.561-3.078,0.191-6.553-2.767-8.861C396.188,387.516,395.434,390.958,398.116,393.385z M140.013,292.249
		c-0.133,0.274-0.264,0.548-0.396,0.821c3.933,2.382,7.863,4.763,11.796,7.146C147.741,297.339,144.386,293.959,140.013,292.249z
		 M370.202,360.215c-0.469,5.852,0.221,11.572,1.629,13.543C371.25,368.93,370.727,364.573,370.202,360.215z M342.747,343.344
		c0.342,0.016,0.684,0.035,1.026,0.051c-0.243-3.888-0.486-7.776-0.729-11.664C342.702,335.619,341.854,339.519,342.747,343.344z
		 M329.856,121.581c-0.287-0.173-0.574-0.348-0.863-0.522c-2.015,3.355-4.029,6.709-6.045,10.063
		C325.646,128.181,328.45,125.304,329.856,121.581z M269.111,233.621c0.501,4.123,1.003,8.247,1.505,12.37
		C270.7,241.786,270.811,237.583,269.111,233.621z M315.159,474.946c-2.438,2.664-5.204,5.139-5.453,9.088
		C311.524,481.005,313.342,477.975,315.159,474.946z M109.237,297.961c2.582,1.41,4.336,3.337,7.756,2.763
		C114.415,299.255,112.71,297.208,109.237,297.961z M339.196,327.457c-0.875,2.723-0.938,5.5,0.125,8.248
		C340.209,332.976,339.706,330.248,339.196,327.457z M346.708,351.608c0.308,0.023,0.615,0.047,0.922,0.072
		c-0.27-3.57-0.539-7.139-0.81-10.708c-0.038,0.009-0.073,0.021-0.112,0.03C346.708,344.538,346.708,348.073,346.708,351.608z
		 M119.985,296.232c2.828,1.57,5.316,3.672,8.458,4.486C124.985,297.643,122.481,296.297,119.985,296.232z M97.855,241.856
		c1.642,1.964,3.016,3.44,5.036,0.823C101.542,240.204,99.81,241.452,97.855,241.856z M540.983,241.881
		c-2.064-0.445-3.878-1.658-5.106,0.852C538.147,245.339,539.362,243.602,540.983,241.881z M263.265,518.417
		c-2.091,1.623-1.292,3.213-0.575,5.182C264.359,521.905,266.014,520.606,263.265,518.417z M376.431,523.714
		c0.068-2.139,1.525-4.012-1.053-5.145C373.545,520.911,373.545,520.911,376.431,523.714z"/>
	<path fill="#438FCD" d="M296.452,0.307c4.538,0,8.691-0.191,12.814,0.077c2.232,0.145,3.37,2.388,4.736,3.905
		c6.619,7.338,13.118,14.784,19.683,22.171c0.561,0.63,0.917,1.523,2.274,1.818c0-8.568,0-17.041,0-25.663
		c-1.967-1.13-4.836,0.84-7.006-1.397c1.551-1.468,3.3-0.824,4.854-0.924c2.655-0.169,5.329-0.22,7.991-0.162
		c1.175,0.024,3.186-0.755,3.189,1.201c0.003,1.71-1.905,0.881-2.996,1.038c-0.852,0.122-1.725,0.097-2.625,0.139
		c0,8.597,0.025,17.002-0.01,25.408c-0.017,4.109-0.123,8.218-0.23,12.326c-0.029,1.071,0.178,2.375-1.224,2.798
		c-1.556,0.468-1.978-0.948-2.815-1.789c-8.865-8.896-15.866-19.422-24.801-28.251c-0.387-0.383-0.859-0.68-1.666-1.307
		c0,9.334,0,18.323,0,27.424c1.59,0.769,3.404,0.2,5.133,0.451c0.908,0.132,1.857,0.285,1.832,1.475
		c-0.018,0.964-0.787,1.317-1.609,1.32c-4.441,0.016-8.882,0.005-13.322-0.045c-0.799-0.01-1.598-0.309-1.586-1.325
		c0.01-1,0.783-1.249,1.595-1.331c1.312-0.134,2.625-0.222,4.298-0.359c0-3.621-0.007-7.131,0.002-10.642
		c0.014-5.333-0.371-10.707,0.182-15.983c0.475-4.511-1.699-6.747-5.068-8.688C298.894,3.309,297.269,3.109,296.452,0.307z"/>
	<path fill="#438FCD" d="M28.116,295.162c-1.958,4.085-2.559,8.074-3.572,11.907c-0.887,3.35-2.396,6.446-3.326,9.756
		c-0.217,0.772-0.486,1.558-1.49,1.47c-0.939-0.081-1.127-0.886-1.426-1.622c-3.617-8.943-7.195-17.901-10.943-26.788
		c-0.978-2.319-1.416-5.313-4.828-5.726c-0.555-0.066-0.843-0.692-0.736-1.317c0.133-0.78,0.715-1.153,1.411-1.152
		c4.884,0.006,9.769,0.04,14.651,0.114c0.72,0.01,1.264,0.481,1.206,1.293c-0.058,0.791-0.634,1.141-1.351,1.197
		c-1.505,0.116-3.014,0.18-4.861,0.284c2.872,6.715,7.066,12.392,9.313,19.936c1.568-4.486,2.896-8.179,4.146-11.898
		c0.668-1.99,1.199-4.026,1.801-6.039c0.287-0.96,0.524-1.991,1.758-2.169c1.276-0.185,1.707,0.804,2.197,1.672
		c3.43,6.086,7.054,12.077,9.27,18.768c0.222,0.67,0.253,1.591,1.465,1.884c2.17-7.26,5.75-14.071,6.791-22.076
		c-2.023-0.104-3.963-0.198-5.902-0.304c-0.807-0.044-1.68-0.211-1.783-1.14c-0.133-1.177,0.841-1.497,1.752-1.524
		c3.662-0.109,7.323-0.167,10.986-0.192c0.989-0.007,2.215,0.021,2.3,1.346c0.103,1.602-1.237,1.542-2.349,1.626
		c-0.545,0.041-1.09,0.095-2.045,0.179c-0.992,8.644-4.84,16.461-7.36,24.698c-0.746,2.435-1.761,4.788-2.612,7.194
		c-0.262,0.738-0.369,1.607-1.359,1.631c-1.066,0.028-1.476-0.818-1.863-1.644c-1.65-3.514-3.34-7.008-4.959-10.537
		C32.729,302.353,30.536,299.036,28.116,295.162z"/>
	<path fill="#438FCD" d="M600.29,288.967c-0.232-4.404-3.422-3.392-6.074-3.421c-2.42-0.027-4.836-0.005-7.168-0.005
		c0,5.847,0,11.33,0,16.974c2.616,0,4.922-0.003,7.23,0.003c0.822,0.002,1.533-0.125,1.842-1.053
		c0.256-0.767,0.648-1.49,1.641-1.275c1.091,0.237,1.252,1.132,1.268,2.062c0.026,1.555,0.047,3.11,0.045,4.663
		c0,1.019-0.01,2.149-1.314,2.337c-1.332,0.194-1.613-0.862-1.815-1.89c-0.103-0.521-0.231-1.037-0.37-1.652
		c-2.77,0-5.412,0-8.312,0c0,4.508,0,9.002,0,13.787c3.863,0,7.802,0,12.247,0c0.477-0.178-0.027-1.192,0.368-1.796
		c0.821-1.251,1.774-1.288,2.602-0.051c1.458,2.183-0.009,5.223-2.593,5.25c-7.32,0.077-14.641,0.054-21.961,0.07
		c-1.149,0.003-2.407-0.054-2.688-1.397c-0.273-1.304,0.969-1.558,1.885-1.894c1.35-0.495,1.317-1.609,1.326-2.743
		c0.072-9.1,0.182-18.202,0.205-27.303c0.006-1.975-0.53-3.771-2.915-4.197c-0.81-0.145-1.619-0.503-1.577-1.423
		c0.051-1.087,0.998-1.443,1.919-1.446c7.658-0.023,15.316-0.033,22.975,0.024c1.694,0.013,2.541,1.102,2.78,2.76
		C602.03,286.707,602.798,288.196,600.29,288.967z"/>
	<path fill="#438FCD" d="M325.669,571.617c-2.164,0-4.281,0.199-6.349-0.043c-3.413-0.398-4.257,1.42-4.273,4.293
		c-0.032,4.912,2.553,8.295,6.692,10.273c5.016,2.393,7.094,6.805,8.859,11.502c1.17,3.121,0.303,5.791-2.313,8.021
		c-3.902,3.328-8.346,4.967-13.447,4.838c-3.777-0.096-10.631-6.707-10.941-10.498c-0.057-0.699,0.051-1.338,0.668-1.768
		c0.834-0.582,1.541-0.111,2.051,0.463c0.655,0.736,1.154,1.611,1.709,2.436c3.119,4.623,9.129,5.568,13.303,2.166
		c2.002-1.633,2.431-3.334,0.686-5.387c-2.946-3.465-5.824-6.955-9.511-9.734c-3.538-2.668-6.237-5.842-5.784-10.883
		c0.423-4.666,3.098-7.938,7.889-8.209c3.98-0.229,7.985-0.006,11.98-0.035c1.428-0.01,1.997,0.736,2.088,2.018
		c0.117,1.662,0.227,3.324,0.302,4.988c0.042,0.949-0.142,1.844-1.337,1.891c-0.924,0.037-1.424-0.582-1.564-1.426
		C326.12,575.009,325.933,573.482,325.669,571.617z"/>
	<path fill="#438FCD" d="M115.009,93.649c1.113,0.039,1.797,0.811,2.502,1.503c11.652,11.434,23.301,22.874,34.934,34.328
		c1.016,1.001,2.417,2.208,1.203,3.674c-1.303,1.572-2.617,0.282-3.636-0.73c-11.747-11.654-23.474-23.329-35.2-35.005
		c-0.796-0.792-1.567-1.637-1.094-2.912C113.933,93.928,114.4,93.668,115.009,93.649z"/>
	<path fill="#438FCD" d="M154.495,468.907c-0.088,1.215-0.729,1.859-1.35,2.486c-11.664,11.737-23.332,23.471-35.013,35.192
		c-0.952,0.955-2.142,2.064-3.399,0.727c-1.123-1.197,0.029-2.273,0.867-3.129c11.582-11.818,23.182-23.621,34.785-35.417
		c0.863-0.879,1.789-1.736,3.197-1.232C154.335,467.803,154.44,468.469,154.495,468.907z"/>
	<path fill="#438FCD" d="M525.214,95.224c-0.117,1.198-0.899,1.866-1.602,2.565c-11.408,11.367-22.822,22.728-34.24,34.083
		c-0.549,0.547-1.125,1.089-1.766,1.517c-0.787,0.524-1.688,0.688-2.43-0.078c-0.742-0.767-0.537-1.685-0.012-2.45
		c0.498-0.725,1.137-1.362,1.768-1.983c11.325-11.135,22.654-22.265,33.996-33.383c0.629-0.616,1.289-1.295,2.068-1.64
		C524.314,93.278,525.118,93.858,525.214,95.224z"/>
	<path fill="#438FCD" d="M485.858,467.352c1.444,0.191,2.192,1.041,2.969,1.832c11.367,11.563,22.737,23.124,34.077,34.715
		c0.946,0.967,2.546,2.154,0.944,3.582c-1.289,1.15-2.459-0.139-3.396-1.082c-11.525-11.563-23.043-23.133-34.545-34.721
		c-0.919-0.926-2.049-1.857-1.443-3.436C484.739,467.528,485.408,467.387,485.858,467.352z"/>
	<path fill="#438FCD" d="M160.141,135.477c2.305,0.147,4.096,1.092,4.198,3.896c0.101,2.749-2.059,5.026-4.718,4.806
		c-2.538-0.209-4.053-1.557-3.975-4.296C155.724,137.209,157.409,135.477,160.141,135.477z"/>
	<path fill="#438FCD" d="M483.136,139.913c0.063,2.729-1.452,4.073-4,4.267c-2.543,0.194-4.605-1.881-4.69-4.503
		c-0.083-2.59,1.616-4.21,4.401-4.198C481.397,135.49,483.079,137.23,483.136,139.913z"/>
	<path fill="#438FCD" d="M478.132,465.795c-2.914-0.092-4.149-1.707-4.223-4.24c-0.072-2.555,2.091-4.504,4.724-4.475
		c2.544,0.029,4.14,1.846,3.965,4.627C482.417,464.577,480.604,465.668,478.132,465.795z"/>
	<path fill="#438FCD" d="M164.89,462.024c-0.342,2.262-1.543,3.828-4.297,3.752c-2.813-0.078-4.588-1.896-4.396-4.627
		c0.181-2.566,1.425-4.127,4.182-4.057C162.999,457.157,164.981,459.235,164.89,462.024z"/>
	<path fill="#438FCD" d="M457.582,170.776c-3.018,4.41-2.007,6.545,2.946,7.043c1.061,0.106,2.546-0.181,2.434,1.452
		c-0.102,1.472-1.58,1.308-2.629,1.366c-3.878,0.213-7.245-2.64-7.246-6.067c-0.004-4.274,3.721-8.269,7.568-8.122
		c3.965,0.153,6.762,3.313,6.547,7.224c-0.128,2.32-1.152,2.908-3.248,2.145C461.378,174.877,459.599,172.901,457.582,170.776z"/>
	<path fill="#438FCD" d="M449.896,170.652c-2.178,0.813-3.629,0.378-4.455-1.156c-0.992-1.846,0.844-2.423,1.834-3.349
		c1.684-1.576,3.579-2.981,4.355-5.284c-3.049-2.885-3.633-2.889-6.51-0.168c-1.045,0.987-2.094,1.977-3.213,2.876
		c-0.955,0.767-2.008,1.44-3.563,0.065c2.146-3.091,5.55-4.896,7.835-7.778c0.088-1.684-2.608-1.866-2.023-3.994
		c2.552-0.861,3.814,0.955,4.668,2.763c0.502,1.065,0.91,1.769,2.008,2.284c4.265,2.004,4.605,4.369,1.373,8.271
		C450.911,166.741,448.374,167.727,449.896,170.652z"/>
	<path fill="#438FCD" d="M197.724,157.958c-0.712-2.059-1.451-4.109-2.128-6.179c-0.351-1.07-0.718-2.323,0.78-2.767
		c1.25-0.372,1.715,0.649,2.042,1.661c1.059,3.267,2.181,6.515,3.159,9.806c0.33,1.109,0.84,2.495-0.58,3.281
		c-1.181,0.655-2.088-0.198-2.964-0.898c-1.026-0.821-1.94-1.826-3.54-2.164c-0.506,1.886,0.659,3.403,0.967,5.045
		c0.191,1.028,0.29,2.002-0.639,2.731c-0.885,0.693-1.664,0.133-2.46-0.256c-2.787-1.36-5.729-2.428-8.222-4.346
		c-0.738-0.567-1.448-1.242-0.833-2.216c0.591-0.936,1.538-0.7,2.38-0.305c1.891,0.887,3.535,2.298,5.832,2.748
		c-0.088-2.317-0.725-4.402-1.533-6.453c-0.297-0.75-0.458-1.54,0.209-2.167c0.812-0.764,1.635-0.374,2.42,0.117
		c1.494,0.933,2.985,1.867,4.478,2.801C197.302,158.251,197.513,158.104,197.724,157.958z"/>
	<path fill="#438FCD" d="M172.31,175.37c-1.035,0.64-0.822,2.114-2.4,2.192c-1.617-1.636-1.08-3.58,0.52-4.549
		c2.764-1.675,3.223-6.596,7.804-5.589c3.437,0.754,5.72,3.219,8.066,5.576c0.206,0.052,0.44,0.194,0.61,0.138
		c0.961-0.322,2.037-1.669,2.881-0.28c0.963,1.59-0.777,2.587-1.527,3.666c-0.848,1.222-1.994,0.657-2.787-0.272
		c-1.586-1.857-3.186-3.688-5.254-5.038c-1.561-1.019-3.156-1.876-4.684,0.006c-1.538,1.895-0.113,2.985,1.189,4.099
		c1.434,1.226,3.053,2.397,3.799,4.127c0.682,1.582,2.227,1.159,3.256,1.87c0.381,1.785-0.164,3.328-1.707,3.922
		c-1.889,0.728-2.411-1.184-2.98-2.383C177.605,179.717,174.867,177.794,172.31,175.37z"/>
	<path fill="#438FCD" d="M454.646,432.581c1.01,1.334,2.08,1.617,3.176,1.814c3.299,0.596,4.318-0.184,4.594-3.557
		c0.065-0.793-0.006-1.695,0.957-1.865c1.12-0.201,1.451,0.664,1.71,1.592c0.792,2.84-0.554,5.498-3.283,6.365
		c-3.935,1.256-8.935-0.893-10.731-4.607c-2.079-4.303,0.625-8.801,5.395-8.912c1.217-0.029,2.535-0.023,3.156,1.32
		c0.544,1.176-0.088,2.15-0.824,3.023C457.448,429.348,456.075,430.92,454.646,432.581z"/>
	<path fill="#438FCD" d="M443.354,438.897c2.251,0.832,3.998-0.633,5.927-0.836c2.461-0.262,3.71,1.02,4.463,3.098
		c1.268,3.502,0.723,5.906-1.868,7.262c-2.138,1.115-4.411,1.605-6.486-0.223c-0.257-0.223-0.208-0.799-0.298-1.203
		c1.266-1.211,2.633-0.242,3.879-0.436c1.961-0.303,3.066-1.109,2.651-3.318c-0.399-2.109-1.505-2.801-3.55-2.135
		c-1.049,0.342-2.135,0.574-3.213,0.828c-1.488,0.35-2.945,0.32-3.902-1.064c-1.041-1.502-0.583-3.031,0.456-4.303
		c1.09-1.332,2.007-3.072,4.134-2.941c1.021,0.063,1.581,0.83,1.746,1.754c0.21,1.156-0.44,1.625-1.551,1.525
		C444.299,436.776,443.915,437.821,443.354,438.897z"/>
	<path fill="#438FCD" d="M188.839,446.719c3.016-1.139,5.536-2.139,8.092-3.039c1.119-0.396,2.613-1.02,3.146,0.568
		c0.544,1.621-1.062,1.865-2.176,2.291c-2.583,0.986-5.105,2.182-7.754,2.932c-3.615,1.021-5.021-0.529-4.056-4.184
		c0.306-1.156,0.705-2.287,1.103-3.563c-0.521-0.063-0.838-0.182-1.115-0.121c-1.658,0.354-3.616,1.801-4.895,0.084
		c-1.154-1.549,0.311-3.338,1.014-4.928c0.447-1.01,0.895-2.025,1.404-3.008c0.634-1.219,0.826-3.283,2.537-3.033
		c1.627,0.236,2.471,1.922,2.832,3.467c-0.962,1.262-1.721-0.078-2.801,0.197c-0.781,1.189-1.43,2.637-1.924,4.711
		c1.752-0.547,3.17-0.982,4.58-1.438c0.83-0.271,1.695-0.818,2.457,0.023c0.859,0.953,0.232,1.846-0.254,2.719
		C190.06,442.145,189.21,443.934,188.839,446.719z"/>
	<path fill="#438FCD" d="M177.243,424.131c0.498,3.248,0.313,6.182-0.647,9.031c-0.692,2.059-2.288,3.047-4.317,3.041
		c-2.643-0.006-4.213-1.77-5.258-3.98c-0.895-1.893-0.047-3.477,1.268-4.803c0.797-0.805,1.902-1.498,2.935-0.553
		c1.116,1.021,0.14,1.725-0.711,2.332c-0.95,0.68-1.243,1.563-0.632,2.596c0.531,0.896,1.299,1.557,2.414,1.502
		c1.387-0.07,1.799-1.117,2.043-2.254c0.447-2.086,0.328-4.17,0.143-6.283c-0.198-2.24,0.76-3.695,3.275-3.453
		c2.375,0.227,5.437,2.973,5.038,4.586c-0.274,1.117-1.124,2.006-2.37,1.969c-1.268-0.035-1.141-0.932-0.992-1.93
		C179.644,424.506,178.474,424.5,177.243,424.131z"/>
	<path fill="#438FCD" d="M330.962,302.813c-0.153,5.25-6.805,12.248-11.607,12.21c-4.988-0.038-11.84-7.557-11.49-12.603
		c0.383-5.491,6.953-12.225,11.727-12.018C324.534,290.617,331.108,297.792,330.962,302.813z"/>
</g>
<text transform="matrix(1 0 0 1 210.0645 457.6143)" display="none" fill="#FFFFFF" font-family="'Montserrat-Bold'" font-size="60">Ups! Error 404</text>
<text transform="matrix(1 0 0 1 249.3452 523.3428)" display="none"><tspan x="0" y="0" display="inline" fill="#FFFFFF" font-family="'Montserrat-Light'" font-size="24">No encontramos la pgina que </tspan><tspan x="0" y="28.8" display="inline" fill="#FFFFFF" font-family="'Montserrat-Light'" font-size="24">estas buscando. </tspan></text>
<polygon display="none" fill-rule="evenodd" clip-rule="evenodd" fill="#4490CD" points="295.634,594.86 576.348,594.86 
	576.348,657.359 295.634,657.359 295.634,594.86 "/>
<text transform="matrix(1 0 0 1 324.647 635.9976)" display="none" fill="#FFFFFF" font-family="'Montserrat-Regular'" font-size="26.8592">Regresar a Inicio</text>
</svg>
